<svg xmlns="http://www.w3.org/2000/svg" xmlns:xlink="http://www.w3.org/1999/xlink" width="500" zoomAndPan="magnify" viewBox="0 0 375 374.999991" height="500" preserveAspectRatio="xMidYMid meet" version="1.0"><defs><g/><clipPath id="2ad32698c4"><path d="M 161 231 L 196 231 L 196 250 L 161 250 Z M 161 231 " clip-rule="nonzero"/></clipPath><clipPath id="89993c7aa9"><path d="M 161.921875 249.140625 L 162.316406 231.617188 L 195.398438 232.363281 L 195.003906 249.886719 Z M 161.921875 249.140625 " clip-rule="nonzero"/></clipPath><clipPath id="c4ae859ba1"><path d="M 0.761719 0.601562 L 34.601562 0.601562 L 34.601562 19 L 0.761719 19 Z M 0.761719 0.601562 " clip-rule="nonzero"/></clipPath><clipPath id="4a2dfe79ef"><path d="M 0.921875 18.140625 L 1.316406 0.617188 L 34.398438 1.363281 L 34.003906 18.886719 Z M 0.921875 18.140625 " clip-rule="nonzero"/></clipPath><clipPath id="ce65b286ab"><rect x="0" width="35" y="0" height="19"/></clipPath><clipPath id="3e76a6cee5"><path d="M 157.226562 232.234375 L 181 232.234375 L 181 249.894531 L 157.226562 249.894531 Z M 157.226562 232.234375 " clip-rule="nonzero"/></clipPath><clipPath id="c1397bf953"><path d="M 166.058594 232.234375 L 172.128906 232.234375 C 174.472656 232.234375 176.71875 233.164062 178.375 234.820312 C 180.03125 236.476562 180.960938 238.722656 180.960938 241.066406 C 180.960938 243.40625 180.03125 245.652344 178.375 247.308594 C 176.71875 248.964844 174.472656 249.894531 172.128906 249.894531 L 166.058594 249.894531 C 163.714844 249.894531 161.46875 248.964844 159.8125 247.308594 C 158.160156 245.652344 157.226562 243.40625 157.226562 241.066406 C 157.226562 238.722656 158.160156 236.476562 159.8125 234.820312 C 161.46875 233.164062 163.714844 232.234375 166.058594 232.234375 Z M 166.058594 232.234375 " clip-rule="nonzero"/></clipPath><clipPath id="9c64a5eec1"><path d="M 0.226562 0.234375 L 24 0.234375 L 24 17.894531 L 0.226562 17.894531 Z M 0.226562 0.234375 " clip-rule="nonzero"/></clipPath><clipPath id="e0ea34a6cb"><path d="M 9.058594 0.234375 L 15.128906 0.234375 C 17.472656 0.234375 19.71875 1.164062 21.375 2.820312 C 23.03125 4.476562 23.960938 6.722656 23.960938 9.066406 C 23.960938 11.40625 23.03125 13.652344 21.375 15.308594 C 19.71875 16.964844 17.472656 17.894531 15.128906 17.894531 L 9.058594 17.894531 C 6.714844 17.894531 4.46875 16.964844 2.8125 15.308594 C 1.160156 13.652344 0.226562 11.40625 0.226562 9.066406 C 0.226562 6.722656 1.160156 4.476562 2.8125 2.820312 C 4.46875 1.164062 6.714844 0.234375 9.058594 0.234375 Z M 9.058594 0.234375 " clip-rule="nonzero"/></clipPath><clipPath id="9f567a0ea2"><rect x="0" width="24" y="0" height="18"/></clipPath><clipPath id="7abe41990c"><path d="M 189 184 L 207 184 L 207 203 L 189 203 Z M 189 184 " clip-rule="nonzero"/></clipPath><clipPath id="9f177d4afd"><path d="M 189.3125 192.332031 L 196.722656 184.925781 L 206.753906 194.957031 L 199.34375 202.363281 Z M 189.3125 192.332031 " clip-rule="nonzero"/></clipPath><clipPath id="afdf70c2af"><path d="M 0.121094 0.800781 L 17.878906 0.800781 L 17.878906 18.558594 L 0.121094 18.558594 Z M 0.121094 0.800781 " clip-rule="nonzero"/></clipPath><clipPath id="4df1149238"><path d="M 0.3125 8.332031 L 7.722656 0.925781 L 17.753906 10.957031 L 10.34375 18.363281 Z M 0.3125 8.332031 " clip-rule="nonzero"/></clipPath><clipPath id="f20ffcc69e"><rect x="0" width="18" y="0" height="19"/></clipPath><clipPath id="80e2fb4c64"><path d="M 67 110.273438 L 87 110.273438 L 87 148 L 67 148 Z M 67 110.273438 " clip-rule="nonzero"/></clipPath><clipPath id="1d852beacd"><path d="M 51.726562 199 L 173.976562 199 L 173.976562 257 L 51.726562 257 Z M 51.726562 199 " clip-rule="nonzero"/></clipPath><clipPath id="e95d7807da"><rect x="0" width="164" y="0" height="35"/></clipPath><clipPath id="c192b54312"><path d="M 0.199219 0.398438 L 9 0.398438 L 9 8 L 0.199219 8 Z M 0.199219 0.398438 " clip-rule="nonzero"/></clipPath><clipPath id="b4e1d066d7"><path d="M 30 0.398438 L 33 0.398438 L 33 8 L 30 8 Z M 30 0.398438 " clip-rule="nonzero"/></clipPath><clipPath id="161594749d"><path d="M 46 0.398438 L 55 0.398438 L 55 8 L 46 8 Z M 46 0.398438 " clip-rule="nonzero"/></clipPath><clipPath id="6b4bf604e1"><path d="M 80 0.398438 L 86 0.398438 L 86 8 L 80 8 Z M 80 0.398438 " clip-rule="nonzero"/></clipPath><clipPath id="e349ac95cf"><path d="M 103 0.398438 L 106 0.398438 L 106 8 L 103 8 Z M 103 0.398438 " clip-rule="nonzero"/></clipPath><clipPath id="951f57a545"><path d="M 111 0.398438 L 114 0.398438 L 114 8 L 111 8 Z M 111 0.398438 " clip-rule="nonzero"/></clipPath><clipPath id="cc6b59efa9"><path d="M 127 0.398438 L 134 0.398438 L 134 8 L 127 8 Z M 127 0.398438 " clip-rule="nonzero"/></clipPath><clipPath id="d044ab5879"><path d="M 133 0.398438 L 136 0.398438 L 136 8 L 133 8 Z M 133 0.398438 " clip-rule="nonzero"/></clipPath><clipPath id="7cb44fb588"><path d="M 136 0.398438 L 141 0.398438 L 141 8 L 136 8 Z M 136 0.398438 " clip-rule="nonzero"/></clipPath><clipPath id="38706d4c6b"><rect x="0" width="145" y="0" height="11"/></clipPath><clipPath id="b3d5e95ef6"><rect x="0" width="25" y="0" height="43"/></clipPath><clipPath id="3f670d7708"><path d="M 48 0.160156 L 59 0.160156 L 59 29 L 48 29 Z M 48 0.160156 " clip-rule="nonzero"/></clipPath><clipPath id="e0b98f4a97"><rect x="0" width="101" y="0" height="41"/></clipPath><clipPath id="aaf51857ca"><path d="M 180 180 L 211 180 L 211 211 L 180 211 Z M 180 180 " clip-rule="nonzero"/></clipPath><clipPath id="74aa2cb363"><path d="M 180.539062 191.78125 L 192.042969 180.277344 L 210.847656 199.085938 L 199.34375 210.589844 Z M 180.539062 191.78125 " clip-rule="nonzero"/></clipPath><clipPath id="2a557fbb63"><path d="M 0.480469 0.238281 L 30.960938 0.238281 L 30.960938 30.71875 L 0.480469 30.71875 Z M 0.480469 0.238281 " clip-rule="nonzero"/></clipPath><clipPath id="ddb8f0ba6b"><path d="M 0.539062 11.78125 L 12.042969 0.277344 L 30.847656 19.085938 L 19.34375 30.589844 Z M 0.539062 11.78125 " clip-rule="nonzero"/></clipPath><clipPath id="3a02df37c1"><rect x="0" width="31" y="0" height="31"/></clipPath><clipPath id="bddc4f7f99"><path d="M 185 188 L 200 188 L 200 203 L 185 203 Z M 185 188 " clip-rule="nonzero"/></clipPath><clipPath id="261f03a496"><path d="M 195.398438 184.582031 L 203.515625 193.417969 L 190.8125 205.089844 L 182.695312 196.253906 Z M 195.398438 184.582031 " clip-rule="nonzero"/></clipPath><clipPath id="850e8d46b7"><path d="M 195.398438 184.582031 L 203.515625 193.417969 L 190.8125 205.089844 L 182.695312 196.253906 Z M 195.398438 184.582031 " clip-rule="nonzero"/></clipPath></defs><g clip-path="url(#2ad32698c4)"><g clip-path="url(#89993c7aa9)"><g transform="matrix(1, 0, 0, 1, 161, 231)"><g clip-path="url(#ce65b286ab)"><g clip-path="url(#c4ae859ba1)"><g clip-path="url(#4a2dfe79ef)"><path fill="#ffffff" d="M 0.921875 18.140625 L 1.316406 0.617188 L 34.382812 1.363281 L 33.984375 18.886719 Z M 0.921875 18.140625 " fill-opacity="1" fill-rule="nonzero"/></g></g></g></g></g></g><g clip-path="url(#3e76a6cee5)"><g clip-path="url(#c1397bf953)"><g transform="matrix(1, 0, 0, 1, 157, 232)"><g clip-path="url(#9f567a0ea2)"><g clip-path="url(#9c64a5eec1)"><g clip-path="url(#e0ea34a6cb)"><path fill="#ffffff" d="M 0.226562 0.234375 L 23.960938 0.234375 L 23.960938 17.894531 L 0.226562 17.894531 Z M 0.226562 0.234375 " fill-opacity="1" fill-rule="nonzero"/></g></g></g></g></g></g><g clip-path="url(#7abe41990c)"><g clip-path="url(#9f177d4afd)"><g transform="matrix(1, 0, 0, 1, 189, 184)"><g clip-path="url(#f20ffcc69e)"><g clip-path="url(#afdf70c2af)"><g clip-path="url(#4df1149238)"><path fill="#ffffff" d="M 0.3125 8.332031 L 7.722656 0.925781 L 17.765625 10.964844 L 10.355469 18.375 Z M 0.3125 8.332031 " fill-opacity="1" fill-rule="nonzero"/></g></g></g></g></g></g><path fill="#82a652" d="M 102.847656 232.332031 C 102.847656 232.332031 102.007812 232.296875 100.425781 232.238281 C 100 232.199219 99.523438 232.160156 98.996094 232.113281 C 98.734375 232.089844 98.460938 232.066406 98.175781 232.042969 C 97.886719 232.019531 97.605469 231.96875 97.304688 231.929688 C 96.703125 231.84375 96.058594 231.765625 95.375 231.652344 C 94.695312 231.523438 93.972656 231.382812 93.207031 231.238281 C 90.167969 230.585938 86.535156 229.460938 82.628906 227.597656 C 78.730469 225.742188 74.597656 223.070312 70.695312 219.480469 C 66.828125 215.867188 63.21875 211.308594 60.496094 205.898438 C 59.136719 203.199219 58 200.296875 57.152344 197.246094 C 56.304688 194.191406 55.75 190.992188 55.535156 187.71875 C 55.507812 187.308594 55.480469 186.898438 55.457031 186.488281 C 55.4375 186.078125 55.441406 185.664062 55.433594 185.25 C 55.429688 184.835938 55.421875 184.425781 55.417969 184.011719 L 55.417969 183.8125 L 55.425781 183.660156 L 55.4375 183.363281 L 55.460938 182.761719 C 55.472656 182.363281 55.488281 181.960938 55.503906 181.558594 C 55.539062 181.136719 55.578125 180.710938 55.613281 180.285156 C 55.652344 179.863281 55.683594 179.4375 55.730469 179.011719 C 55.785156 178.597656 55.84375 178.179688 55.902344 177.761719 C 56.375 174.429688 57.210938 171.105469 58.410156 167.890625 C 60.804688 161.460938 64.703125 155.511719 69.648438 150.660156 C 74.617188 145.835938 80.628906 142.109375 87.046875 139.898438 C 90.253906 138.792969 93.554688 138.046875 96.847656 137.660156 C 100.136719 137.273438 103.429688 137.246094 106.617188 137.535156 C 113.042969 138.113281 119.054688 140.023438 124.21875 142.792969 C 129.398438 145.558594 133.710938 149.152344 137.09375 152.957031 C 140.453125 156.789062 142.914062 160.808594 144.589844 164.574219 C 146.277344 168.339844 147.261719 171.816406 147.808594 174.714844 C 148.363281 177.617188 148.492188 179.9375 148.585938 181.511719 C 148.609375 183.089844 148.617188 183.933594 148.617188 183.933594 C 148.617188 183.933594 148.585938 183.089844 148.523438 181.515625 C 148.390625 179.945312 148.203125 177.632812 147.582031 174.761719 C 146.964844 171.890625 145.898438 168.464844 144.140625 164.78125 C 142.386719 161.101562 139.859375 157.203125 136.46875 153.523438 C 133.054688 149.875 128.746094 146.46875 123.644531 143.90625 C 121.097656 142.625 118.355469 141.554688 115.476562 140.757812 C 112.605469 139.960938 109.570312 139.441406 106.5 139.238281 C 103.398438 139.035156 100.242188 139.144531 97.097656 139.59375 C 93.953125 140.039062 90.820312 140.832031 87.792969 141.960938 C 81.730469 144.222656 76.128906 147.902344 71.554688 152.570312 C 67.007812 157.261719 63.5 162.929688 61.421875 168.976562 C 60.382812 172 59.683594 175.105469 59.324219 178.207031 C 59.277344 178.59375 59.234375 178.984375 59.1875 179.371094 C 59.160156 179.753906 59.140625 180.132812 59.113281 180.511719 C 59.089844 180.890625 59.066406 181.269531 59.042969 181.648438 C 59.039062 182.050781 59.03125 182.453125 59.027344 182.851562 L 59.015625 183.753906 L 59.015625 183.902344 C 59.015625 183.90625 59.011719 183.996094 59.015625 183.933594 L 59.015625 184.003906 C 59.03125 184.386719 59.046875 184.769531 59.0625 185.152344 C 59.078125 185.53125 59.085938 185.914062 59.109375 186.292969 C 59.144531 186.671875 59.175781 187.050781 59.210938 187.425781 C 59.488281 190.441406 60.070312 193.375 60.917969 196.152344 C 61.765625 198.929688 62.871094 201.558594 64.175781 203.992188 C 66.78125 208.863281 70.171875 212.925781 73.753906 216.109375 C 77.371094 219.269531 81.152344 221.585938 84.695312 223.160156 C 88.242188 224.742188 91.511719 225.664062 94.242188 226.179688 C 94.925781 226.289062 95.574219 226.398438 96.183594 226.5 C 96.796875 226.585938 97.375 226.636719 97.910156 226.703125 C 98.175781 226.730469 98.4375 226.773438 98.675781 226.78125 C 98.917969 226.796875 99.148438 226.8125 99.371094 226.824219 C 99.8125 226.851562 100.214844 226.878906 100.574219 226.902344 C 102.148438 226.925781 102.984375 226.9375 102.984375 226.9375 L 102.992188 226.9375 C 104.484375 226.957031 105.675781 228.183594 105.652344 229.671875 C 105.632812 231.164062 104.40625 232.355469 102.917969 232.332031 C 102.898438 232.332031 102.867188 232.332031 102.847656 232.332031 " fill-opacity="1" fill-rule="nonzero"/><g clip-path="url(#80e2fb4c64)"><path fill="#82a652" d="M 84.925781 110.269531 C 58.542969 121.898438 69.292969 147.964844 69.292969 147.964844 C 93.855469 130.027344 84.925781 110.269531 84.925781 110.269531 " fill-opacity="1" fill-rule="nonzero"/></g><path fill="#82a652" d="M 119.558594 137.972656 C 143.023438 157.320312 159.953125 143.765625 159.953125 143.765625 C 142.144531 121.09375 119.558594 137.972656 119.558594 137.972656 " fill-opacity="1" fill-rule="nonzero"/><path fill="#82a652" d="M 68.550781 163.863281 C 87.40625 168.144531 93.148438 155.605469 93.148438 155.605469 C 76.554688 147.820312 68.550781 163.863281 68.550781 163.863281 " fill-opacity="1" fill-rule="nonzero"/><path fill="#82a652" d="M 111.328125 143.410156 C 113.949219 162.570312 127.703125 163.539062 127.703125 163.539062 C 129.160156 145.265625 111.328125 143.410156 111.328125 143.410156 " fill-opacity="1" fill-rule="nonzero"/><g clip-path="url(#1d852beacd)"><path fill="#46620d" d="M 128.140625 243.871094 C 128.140625 243.871094 120.75 222.933594 102.277344 221.292969 C 83.804688 219.648438 76.828125 205.691406 73.542969 208.566406 C 70.257812 211.4375 80.289062 220.902344 86.355469 226.023438 C 91.847656 230.65625 62.457031 218.324219 56.511719 201.339844 C 55.855469 199.464844 53.320312 199.179688 52.242188 200.847656 C 51.835938 201.484375 51.746094 202.269531 52.007812 202.976562 C 54.128906 208.6875 65.308594 234.316406 99.816406 249.207031 C 138.8125 266.039062 175.351562 247.566406 175.351562 247.566406 C 175.351562 247.566406 139.226562 252.902344 128.140625 243.871094 " fill-opacity="1" fill-rule="nonzero"/></g><g transform="matrix(1, 0, 0, 1, 154, 223)"><g clip-path="url(#e95d7807da)"><g fill="#297903" fill-opacity="1"><g transform="translate(9.444419, 28.190032)"><g><path d="M 46.714844 -24 C 46.714844 -24.5625 46.253906 -25.023438 45.691406 -25.023438 C 44.703125 -25.023438 42.457031 -23.175781 41.699219 -22.550781 C 39.417969 -20.667969 36.910156 -17.265625 35.0625 -14.921875 C 34.335938 -14 33.640625 -13.039062 32.851562 -12.214844 C 32.15625 -11.984375 30.835938 -11.753906 30.109375 -11.753906 C 29.84375 -11.753906 29.78125 -11.71875 29.78125 -11.589844 C 29.78125 -11.457031 29.910156 -11.457031 30.011719 -11.457031 C 30.835938 -11.457031 31.59375 -11.554688 32.386719 -11.6875 C 31.726562 -10.828125 24.597656 -1.75 23.769531 -1.652344 C 23.738281 -1.78125 23.703125 -1.914062 23.703125 -2.046875 C 23.703125 -2.507812 25.324219 -5.84375 25.621094 -6.4375 C 27.402344 -9.9375 29.25 -13.4375 30.769531 -17.070312 C 31.296875 -18.289062 32.980469 -22.515625 32.980469 -23.703125 C 32.980469 -24.132812 32.816406 -24.53125 32.320312 -24.53125 C 31.761719 -24.53125 30.867188 -23.40625 30.570312 -23.042969 C 25.917969 -17.433594 20.566406 -10.992188 14.824219 -6.503906 C 11.652344 -4.027344 6.371094 -0.726562 2.210938 -0.726562 C 0.527344 -0.726562 -0.992188 -1.253906 -2.210938 -2.441406 C -3.464844 -3.664062 -3.828125 -4.851562 -3.863281 -6.570312 C -2.9375 -6.40625 -2.015625 -6.304688 -1.054688 -6.304688 C 2.9375 -6.304688 7.625 -7.691406 10.960938 -9.90625 C 13.46875 -11.554688 17.070312 -14.691406 17.070312 -17.992188 C 17.070312 -20.503906 14.660156 -21.195312 12.578125 -21.195312 C 8.75 -21.195312 4.457031 -19.28125 1.550781 -16.835938 C -1.617188 -14.164062 -3.664062 -11.226562 -4.292969 -7.097656 C -6.371094 -7.792969 -7.660156 -9.011719 -7.660156 -11.292969 C -7.660156 -13.734375 -6.109375 -15.75 -4.191406 -17.101562 C -2.210938 -18.519531 -0.363281 -18.882812 2.015625 -19.015625 C 2.078125 -19.015625 2.476562 -19.015625 2.476562 -19.183594 C 2.476562 -19.445312 1.683594 -19.414062 1.1875 -19.414062 C -2.9375 -19.414062 -8.054688 -15.8125 -8.054688 -11.390625 C -8.054688 -8.714844 -6.703125 -7.527344 -4.324219 -6.636719 C -4.226562 -4.65625 -3.828125 -3.335938 -2.34375 -1.949219 C -0.925781 -0.628906 1.089844 0 3.003906 0 C 8.980469 0 14.789062 -4.820312 18.851562 -8.78125 C 22.8125 -12.644531 25.882812 -17.234375 29.679688 -21.230469 C 29.84375 -21.394531 30.867188 -22.679688 31.066406 -22.679688 C 31.167969 -22.679688 31.230469 -22.582031 31.230469 -22.484375 C 31.230469 -22.085938 30.539062 -20.699219 30.339844 -20.335938 C 28.195312 -16.046875 21.953125 -5.28125 21.953125 -1.054688 C 21.953125 -0.628906 22.019531 0 22.582031 0 C 22.878906 0 23.144531 -0.199219 23.375 -0.363281 C 24.695312 -1.417969 26.941406 -4.359375 28.0625 -5.710938 C 29.054688 -6.898438 30.011719 -8.089844 31 -9.277344 C 31.726562 -10.136719 32.488281 -10.992188 33.148438 -11.886719 C 36.746094 -12.808594 38.859375 -14.128906 41.5 -16.738281 C 42.820312 -18.027344 46.714844 -22.085938 46.714844 -24 Z M 46.222656 -24 C 46.222656 -22.054688 42.257812 -17.992188 40.871094 -16.707031 C 38.394531 -14.425781 36.648438 -13.402344 33.476562 -12.347656 C 34.765625 -13.898438 36.050781 -15.449219 37.339844 -17.003906 C 38.332031 -18.191406 39.289062 -19.445312 40.34375 -20.566406 C 41.167969 -21.425781 44.503906 -24.628906 45.625 -24.628906 C 45.988281 -24.628906 46.222656 -24.332031 46.222656 -24 Z M 16.640625 -17.828125 C 16.640625 -14.660156 12.742188 -11.488281 10.332031 -9.96875 C 7.097656 -7.957031 2.675781 -6.769531 -1.121094 -6.769531 C -2.046875 -6.769531 -2.9375 -6.867188 -3.863281 -7.03125 C -3.402344 -10.761719 -1.386719 -13.867188 1.453125 -16.242188 C 4.292969 -18.652344 8.648438 -20.765625 12.445312 -20.765625 C 14.363281 -20.765625 16.640625 -20.171875 16.640625 -17.828125 Z M 16.640625 -17.828125 "/></g></g></g><g fill="#297903" fill-opacity="1"><g transform="translate(44.902043, 28.190032)"><g><path d="M 6.800781 -7.496094 C 6.835938 -7.59375 6.867188 -7.726562 6.867188 -7.824219 C 6.867188 -8.417969 6.074219 -8.582031 5.613281 -8.582031 C 2.773438 -8.582031 -2.675781 -4.886719 -2.675781 -1.816406 C -2.675781 -0.726562 -1.847656 0 -0.792969 0 C 0.460938 0 1.980469 -1.550781 2.839844 -2.34375 C 2.707031 -1.949219 2.542969 -1.453125 2.542969 -1.054688 C 2.542969 -0.332031 3.136719 0 3.796875 0 C 5.746094 0 9.046875 -3.003906 10.367188 -4.292969 C 10.597656 -4.488281 11.820312 -5.578125 11.820312 -5.84375 C 11.820312 -5.941406 11.785156 -6.007812 11.6875 -6.007812 C 11.523438 -6.007812 6.042969 -0.5625 4.359375 -0.5625 C 4.125 -0.5625 3.828125 -0.691406 3.828125 -0.992188 C 3.828125 -1.386719 4.851562 -2.742188 5.117188 -3.070312 L 9.410156 -8.484375 L 7.527344 -8.386719 Z M 6.207031 -7.460938 C 6.207031 -5.976562 0.628906 -0.394531 -0.792969 -0.394531 C -1.121094 -0.394531 -1.417969 -0.757812 -1.417969 -1.089844 C -1.417969 -2.3125 1.023438 -4.851562 1.816406 -5.644531 C 2.640625 -6.472656 4.257812 -8.121094 5.546875 -8.121094 C 5.910156 -8.121094 6.207031 -7.824219 6.207031 -7.460938 Z M 6.207031 -7.460938 "/></g></g></g><g fill="#297903" fill-opacity="1"><g transform="translate(56.523163, 28.190032)"><g><path d="M -0.199219 -5.976562 C -1.15625 -4.851562 -2.839844 -3.003906 -2.839844 -1.417969 C -2.839844 -0.496094 -2.210938 0 -1.320312 0 C 0.824219 0 4.390625 -3.699219 5.777344 -5.117188 C 5.910156 -5.25 6.40625 -5.777344 6.40625 -5.910156 C 6.40625 -6.007812 6.304688 -6.042969 6.238281 -6.042969 C 6.042969 -6.042969 5.546875 -5.414062 5.414062 -5.28125 C 4.457031 -4.359375 0.496094 -0.527344 -0.957031 -0.527344 C -1.320312 -0.527344 -1.652344 -0.792969 -1.652344 -1.1875 C -1.652344 -2.046875 -0.691406 -3.039062 -0.199219 -3.664062 L 5.679688 -10.796875 L 7.757812 -10.796875 L 8.089844 -11.355469 L 6.074219 -11.355469 L 9.605469 -15.582031 L 7.757812 -15.320312 L 4.425781 -11.355469 L 2.507812 -11.355469 L 2.144531 -10.796875 L 3.960938 -10.796875 Z M -0.199219 -5.976562 "/></g></g></g><g fill="#297903" fill-opacity="1"><g transform="translate(62.630855, 28.190032)"><g><path d="M 0.230469 -6.570312 C -0.5625 -5.578125 -3.167969 -2.707031 -3.167969 -1.355469 C -3.167969 -0.628906 -2.574219 -0.03125 -1.847656 -0.03125 C -0.132812 -0.03125 1.484375 -1.980469 2.609375 -3.101562 C 2.3125 -2.609375 1.847656 -1.683594 1.847656 -1.089844 C 1.847656 -0.429688 2.144531 0 2.839844 0 C 4.917969 0 8.320312 -3.828125 9.605469 -5.214844 C 9.773438 -5.382812 10.101562 -5.679688 10.101562 -5.941406 C 10.101562 -6.007812 10.101562 -6.074219 10.003906 -6.074219 C 9.773438 -6.074219 9.640625 -5.875 9.476562 -5.710938 C 8.550781 -4.722656 4.554688 -0.527344 3.203125 -0.527344 C 2.972656 -0.527344 2.871094 -0.726562 2.871094 -0.925781 C 2.871094 -1.847656 8.617188 -8.519531 8.78125 -8.75 L 6.867188 -8.648438 C 5.085938 -6.339844 3.101562 -4.027344 0.890625 -2.144531 C 0.429688 -1.78125 -0.890625 -0.527344 -1.484375 -0.527344 C -1.816406 -0.527344 -1.980469 -0.726562 -1.980469 -1.054688 C -1.980469 -1.980469 3.269531 -8.089844 3.863281 -8.78125 L 1.949219 -8.648438 Z M 0.230469 -6.570312 "/></g></g></g><g fill="#297903" fill-opacity="1"><g transform="translate(72.403163, 28.190032)"><g><path d="M 8.222656 -5.84375 C 8.222656 -5.941406 8.121094 -6.007812 8.023438 -6.007812 C 7.726562 -6.007812 3.101562 -0.757812 1.386719 -0.757812 C 1.121094 -0.757812 0.925781 -0.957031 0.925781 -1.222656 C 0.925781 -3.070312 4.722656 -6.667969 5.8125 -7.726562 C 5.910156 -7.824219 6.472656 -8.285156 6.472656 -8.453125 C 6.472656 -8.550781 6.304688 -8.683594 6.238281 -8.75 C 5.613281 -8.582031 4.917969 -8.386719 4.292969 -8.386719 C 3.996094 -8.386719 3.699219 -8.484375 3.433594 -8.617188 C 3.730469 -8.914062 4.125 -9.308594 4.125 -9.773438 C 4.125 -10.101562 3.960938 -10.5 3.566406 -10.5 C 2.742188 -10.5 2.441406 -9.375 2.441406 -8.714844 C 1.683594 -7.792969 0.890625 -6.898438 0.03125 -6.074219 C -0.03125 -6.007812 -0.230469 -5.84375 -0.230469 -5.710938 C -0.230469 -5.613281 -0.164062 -5.546875 -0.0664062 -5.546875 C 0.164062 -5.546875 2.277344 -7.890625 2.574219 -8.222656 C 2.871094 -7.988281 3.367188 -7.792969 3.730469 -7.792969 C 4.0625 -7.792969 4.390625 -7.824219 4.722656 -7.921875 C 3.234375 -6.703125 -0.496094 -3.730469 -0.496094 -1.617188 C -0.496094 -0.691406 0.03125 -0.132812 0.957031 -0.132812 C 2.640625 -0.132812 5.976562 -3.5 7.195312 -4.6875 C 7.328125 -4.820312 8.222656 -5.679688 8.222656 -5.84375 Z M 8.222656 -5.84375 "/></g></g></g><g fill="#297903" fill-opacity="1"><g transform="translate(80.359667, 28.190032)"><g><path d="M 8.816406 -5.875 C 8.816406 -5.941406 8.75 -6.007812 8.683594 -6.007812 C 8.453125 -6.007812 7.890625 -5.382812 7.726562 -5.214844 C 6.304688 -3.796875 2.507812 -0.5625 0.363281 -0.5625 C -0.363281 -0.5625 -0.859375 -1.054688 -0.859375 -1.78125 C -0.859375 -2.277344 -0.628906 -2.675781 -0.363281 -3.070312 C 1.519531 -3.699219 6.109375 -5.28125 6.109375 -7.757812 C 6.109375 -8.453125 5.449219 -8.75 4.851562 -8.75 C 3.335938 -8.75 0.957031 -7.132812 0 -6.074219 C -0.925781 -5.085938 -2.015625 -3.730469 -2.015625 -2.3125 C -2.015625 -1.054688 -0.957031 0 0.296875 0 C 2.839844 0 7.296875 -4.0625 8.816406 -5.875 Z M 5.449219 -7.859375 C 5.449219 -7 4.425781 -6.007812 3.828125 -5.511719 C 2.707031 -4.589844 1.253906 -4.09375 -0.0664062 -3.597656 C 0.726562 -4.820312 3.269531 -8.351562 4.886719 -8.351562 C 5.183594 -8.351562 5.449219 -8.1875 5.449219 -7.859375 Z M 5.449219 -7.859375 "/></g></g></g><g fill="#297903" fill-opacity="1"><g transform="translate(88.910437, 28.190032)"><g/></g></g><g fill="#297903" fill-opacity="1"><g transform="translate(97.461206, 28.190032)"><g><path d="M 39.71875 -24.132812 C 39.71875 -24.726562 39.058594 -24.859375 38.59375 -24.859375 C 36.910156 -24.859375 34.898438 -23.769531 33.511719 -22.878906 C 31.726562 -23.308594 30.011719 -24.035156 28.261719 -24.597656 C 26.609375 -25.125 24.628906 -25.621094 22.878906 -25.621094 C 21.261719 -25.621094 19.050781 -25.058594 17.796875 -23.96875 C 16.539062 -22.878906 15.714844 -21.128906 15.714844 -19.480469 C 15.714844 -19.183594 15.945312 -17.136719 16.34375 -17.136719 C 16.441406 -17.136719 16.507812 -17.167969 16.507812 -17.265625 C 16.507812 -17.695312 16.144531 -18.457031 16.144531 -19.28125 C 16.144531 -22.285156 18.390625 -24 21.261719 -24 C 23.011719 -24 28.394531 -22.085938 31.695312 -21.558594 C 30.441406 -20.535156 29.183594 -19.480469 28.0625 -18.289062 C 26.214844 -16.308594 24.726562 -14 23.277344 -11.71875 C 21.425781 -8.847656 19.710938 -5.613281 17.003906 -3.433594 C 15.121094 -1.914062 12.578125 -0.757812 10.136719 -0.757812 C 8.617188 -0.757812 7.132812 -1.1875 5.875 -2.015625 C 4.523438 -2.9375 4.0625 -3.796875 3.402344 -5.25 C 4.160156 -5.085938 4.917969 -4.917969 5.710938 -4.917969 C 8.253906 -4.917969 11.09375 -6.074219 13.007812 -7.726562 C 14.757812 -9.210938 16.539062 -11.785156 16.539062 -14.164062 C 16.539062 -16.375 14.691406 -17.433594 12.679688 -17.433594 C 9.871094 -17.433594 7.261719 -15.714844 5.480469 -13.667969 C 3.464844 -11.355469 2.773438 -9.046875 2.773438 -6.007812 C 1.1875 -7 0.5625 -7.988281 0.5625 -9.871094 C 0.5625 -12.578125 2.277344 -14.988281 4.554688 -16.375 C 4.886719 -16.574219 5.746094 -16.96875 5.746094 -17.101562 C 5.746094 -17.234375 5.613281 -17.265625 5.511719 -17.265625 C 4.65625 -17.265625 2.3125 -15.21875 1.78125 -14.527344 C 0.757812 -13.140625 0.132812 -11.621094 0.132812 -9.871094 C 0.132812 -7.625 0.992188 -6.570312 2.871094 -5.449219 C 4.292969 -1.355469 7.625 0.03125 11.71875 0.03125 C 17.367188 0.03125 21.359375 -3.828125 23.902344 -8.519531 C 26.773438 -13.867188 27.269531 -17.332031 32.386719 -21.492188 C 33.015625 -21.394531 33.640625 -21.359375 34.269531 -21.359375 C 34.898438 -21.359375 35.523438 -21.425781 36.152344 -21.558594 C 37.242188 -21.824219 39.71875 -22.714844 39.71875 -24.132812 Z M 39.253906 -24.101562 C 39.253906 -22.976562 36.910156 -22.351562 36.050781 -22.351562 C 35.390625 -22.351562 34.765625 -22.484375 34.136719 -22.679688 C 35.324219 -23.472656 37.242188 -24.496094 38.726562 -24.496094 C 38.992188 -24.496094 39.253906 -24.398438 39.253906 -24.101562 Z M 16.046875 -14.230469 C 16.046875 -9.507812 10.234375 -5.414062 5.84375 -5.414062 C 4.953125 -5.414062 4.0625 -5.613281 3.203125 -5.8125 C 3.203125 -6.140625 3.167969 -6.472656 3.167969 -6.800781 C 3.167969 -11.589844 7.792969 -17.003906 12.742188 -17.003906 C 14.460938 -17.003906 16.046875 -16.109375 16.046875 -14.230469 Z M 16.046875 -14.230469 "/></g></g></g><g fill="#297903" fill-opacity="1"><g transform="translate(125.589599, 28.190032)"><g><path d="M 8.222656 -5.84375 C 8.222656 -5.941406 8.121094 -6.007812 8.023438 -6.007812 C 7.726562 -6.007812 3.101562 -0.757812 1.386719 -0.757812 C 1.121094 -0.757812 0.925781 -0.957031 0.925781 -1.222656 C 0.925781 -3.070312 4.722656 -6.667969 5.8125 -7.726562 C 5.910156 -7.824219 6.472656 -8.285156 6.472656 -8.453125 C 6.472656 -8.550781 6.304688 -8.683594 6.238281 -8.75 C 5.613281 -8.582031 4.917969 -8.386719 4.292969 -8.386719 C 3.996094 -8.386719 3.699219 -8.484375 3.433594 -8.617188 C 3.730469 -8.914062 4.125 -9.308594 4.125 -9.773438 C 4.125 -10.101562 3.960938 -10.5 3.566406 -10.5 C 2.742188 -10.5 2.441406 -9.375 2.441406 -8.714844 C 1.683594 -7.792969 0.890625 -6.898438 0.03125 -6.074219 C -0.03125 -6.007812 -0.230469 -5.84375 -0.230469 -5.710938 C -0.230469 -5.613281 -0.164062 -5.546875 -0.0664062 -5.546875 C 0.164062 -5.546875 2.277344 -7.890625 2.574219 -8.222656 C 2.871094 -7.988281 3.367188 -7.792969 3.730469 -7.792969 C 4.0625 -7.792969 4.390625 -7.824219 4.722656 -7.921875 C 3.234375 -6.703125 -0.496094 -3.730469 -0.496094 -1.617188 C -0.496094 -0.691406 0.03125 -0.132812 0.957031 -0.132812 C 2.640625 -0.132812 5.976562 -3.5 7.195312 -4.6875 C 7.328125 -4.820312 8.222656 -5.679688 8.222656 -5.84375 Z M 8.222656 -5.84375 "/></g></g></g><g fill="#297903" fill-opacity="1"><g transform="translate(133.546103, 28.190032)"><g><path d="M 0.230469 -6.570312 C -0.5625 -5.578125 -3.167969 -2.707031 -3.167969 -1.355469 C -3.167969 -0.628906 -2.574219 -0.03125 -1.847656 -0.03125 C -0.132812 -0.03125 1.484375 -1.980469 2.609375 -3.101562 C 2.3125 -2.609375 1.847656 -1.683594 1.847656 -1.089844 C 1.847656 -0.429688 2.144531 0 2.839844 0 C 4.917969 0 8.320312 -3.828125 9.605469 -5.214844 C 9.773438 -5.382812 10.101562 -5.679688 10.101562 -5.941406 C 10.101562 -6.007812 10.101562 -6.074219 10.003906 -6.074219 C 9.773438 -6.074219 9.640625 -5.875 9.476562 -5.710938 C 8.550781 -4.722656 4.554688 -0.527344 3.203125 -0.527344 C 2.972656 -0.527344 2.871094 -0.726562 2.871094 -0.925781 C 2.871094 -1.847656 8.617188 -8.519531 8.78125 -8.75 L 6.867188 -8.648438 C 5.085938 -6.339844 3.101562 -4.027344 0.890625 -2.144531 C 0.429688 -1.78125 -0.890625 -0.527344 -1.484375 -0.527344 C -1.816406 -0.527344 -1.980469 -0.726562 -1.980469 -1.054688 C -1.980469 -1.980469 3.269531 -8.089844 3.863281 -8.78125 L 1.949219 -8.648438 Z M 0.230469 -6.570312 "/></g></g></g><g fill="#297903" fill-opacity="1"><g transform="translate(143.318411, 28.190032)"><g><path d="M 10.035156 -5.875 C 10.035156 -5.976562 9.9375 -6.007812 9.871094 -6.007812 C 9.707031 -6.007812 8.351562 -4.6875 8.1875 -4.554688 C 6.472656 -3.039062 2.839844 -0.429688 0.5625 -0.429688 C 2.773438 -1.519531 5.183594 -3.335938 5.183594 -6.042969 C 5.183594 -7.261719 4.523438 -8.1875 3.894531 -9.179688 C 4.226562 -9.542969 4.589844 -9.96875 4.589844 -10.5 C 4.589844 -10.761719 4.425781 -11.058594 4.125 -11.058594 C 3.402344 -11.058594 3.234375 -9.96875 3.203125 -9.441406 C 2.3125 -8.222656 1.15625 -7.164062 0.0976562 -6.074219 C 0.03125 -6.007812 -0.265625 -5.746094 -0.265625 -5.613281 C -0.265625 -5.546875 -0.230469 -5.449219 -0.132812 -5.449219 C 0.03125 -5.449219 2.9375 -8.484375 3.335938 -8.914062 C 3.796875 -8.253906 3.929688 -7.792969 3.929688 -7 C 3.929688 -4.851562 1.355469 -0.460938 -1.054688 -0.460938 C -1.484375 -0.460938 -2.015625 -0.824219 -2.015625 -1.289062 C -2.015625 -2.246094 -0.363281 -1.453125 -0.363281 -2.476562 C -0.363281 -2.871094 -0.792969 -3.003906 -1.121094 -3.003906 C -1.980469 -3.003906 -2.507812 -2.210938 -2.507812 -1.417969 C -2.507812 -0.0976562 -1.023438 0 -0.03125 0 C 2.9375 0 5.746094 -2.113281 7.988281 -3.863281 C 8.285156 -4.09375 10.035156 -5.449219 10.035156 -5.875 Z M 10.035156 -5.875 "/></g></g></g><g fill="#297903" fill-opacity="1"><g transform="translate(153.090719, 28.190032)"><g><path d="M -0.199219 -5.976562 C -1.15625 -4.851562 -2.839844 -3.003906 -2.839844 -1.417969 C -2.839844 -0.496094 -2.210938 0 -1.320312 0 C 0.824219 0 4.390625 -3.699219 5.777344 -5.117188 C 5.910156 -5.25 6.40625 -5.777344 6.40625 -5.910156 C 6.40625 -6.007812 6.304688 -6.042969 6.238281 -6.042969 C 6.042969 -6.042969 5.546875 -5.414062 5.414062 -5.28125 C 4.457031 -4.359375 0.496094 -0.527344 -0.957031 -0.527344 C -1.320312 -0.527344 -1.652344 -0.792969 -1.652344 -1.1875 C -1.652344 -2.046875 -0.691406 -3.039062 -0.199219 -3.664062 L 5.679688 -10.796875 L 7.757812 -10.796875 L 8.089844 -11.355469 L 6.074219 -11.355469 L 9.605469 -15.582031 L 7.757812 -15.320312 L 4.425781 -11.355469 L 2.507812 -11.355469 L 2.144531 -10.796875 L 3.960938 -10.796875 Z M -0.199219 -5.976562 "/></g></g></g></g></g><g transform="matrix(1, 0, 0, 1, 169, 254)"><g clip-path="url(#38706d4c6b)"><g clip-path="url(#c192b54312)"><g fill="#8bc43f" fill-opacity="1"><g transform="translate(0.481156, 7.779347)"><g><path d="M 6.5 -1.78125 L 6.5 -5.859375 C 6.5 -6.148438 6.445312 -6.347656 6.34375 -6.453125 C 6.238281 -6.554688 6.039062 -6.609375 5.75 -6.609375 L 5.515625 -6.609375 L 5.515625 -6.796875 L 8.015625 -6.796875 L 8.015625 -6.609375 L 7.796875 -6.609375 C 7.535156 -6.609375 7.347656 -6.59375 7.234375 -6.5625 C 7.128906 -6.53125 7.050781 -6.453125 7 -6.328125 C 6.957031 -6.210938 6.9375 -6.015625 6.9375 -5.734375 L 6.9375 0.078125 L 6.8125 0.078125 L 1.953125 -5.390625 L 1.953125 -1.140625 C 1.953125 -0.773438 2.023438 -0.519531 2.171875 -0.375 C 2.316406 -0.238281 2.570312 -0.171875 2.9375 -0.171875 L 2.9375 0 L 0.484375 0 L 0.484375 -0.171875 L 0.546875 -0.171875 C 0.859375 -0.171875 1.097656 -0.226562 1.265625 -0.34375 C 1.429688 -0.46875 1.515625 -0.679688 1.515625 -0.984375 L 1.515625 -5.828125 C 1.335938 -6.117188 1.140625 -6.320312 0.921875 -6.4375 C 0.710938 -6.550781 0.445312 -6.609375 0.125 -6.609375 L 0.125 -6.796875 L 2.109375 -6.796875 Z M 6.5 -1.78125 "/></g></g></g></g><g fill="#8bc43f" fill-opacity="1"><g transform="translate(8.619953, 7.779347)"><g><path d="M 1.8125 -1.3125 C 1.8125 -1.070312 1.882812 -0.875 2.03125 -0.71875 C 2.175781 -0.570312 2.359375 -0.5 2.578125 -0.5 C 2.765625 -0.5 2.957031 -0.546875 3.15625 -0.640625 C 3.363281 -0.742188 3.5625 -0.894531 3.75 -1.09375 L 3.75 -3.84375 C 3.75 -4.21875 3.523438 -4.40625 3.078125 -4.40625 L 2.984375 -4.40625 L 2.984375 -4.59375 L 4.5625 -4.59375 L 4.5625 -1.0625 C 4.5625 -0.945312 4.59375 -0.828125 4.65625 -0.703125 C 4.726562 -0.585938 4.84375 -0.53125 5 -0.53125 C 5.082031 -0.53125 5.191406 -0.554688 5.328125 -0.609375 L 5.328125 -0.421875 L 3.9375 0.125 L 3.75 0.125 L 3.75 -0.84375 L 3.734375 -0.84375 C 3.191406 -0.1875 2.675781 0.140625 2.1875 0.140625 C 1.9375 0.140625 1.722656 0.078125 1.546875 -0.046875 C 1.367188 -0.179688 1.234375 -0.347656 1.140625 -0.546875 C 1.054688 -0.742188 1.015625 -0.941406 1.015625 -1.140625 L 1.015625 -3.765625 C 1.015625 -4.015625 0.953125 -4.179688 0.828125 -4.265625 C 0.710938 -4.359375 0.535156 -4.40625 0.296875 -4.40625 L 0.171875 -4.40625 L 0.171875 -4.59375 L 1.8125 -4.59375 Z M 1.8125 -1.3125 "/></g></g></g><g fill="#8bc43f" fill-opacity="1"><g transform="translate(14.078785, 7.779347)"><g><path d="M 1.828125 -3.765625 L 1.84375 -3.765625 C 2.019531 -4.066406 2.207031 -4.296875 2.40625 -4.453125 C 2.601562 -4.617188 2.828125 -4.703125 3.078125 -4.703125 C 3.265625 -4.703125 3.410156 -4.644531 3.515625 -4.53125 C 3.628906 -4.425781 3.6875 -4.296875 3.6875 -4.140625 C 3.6875 -4.015625 3.640625 -3.90625 3.546875 -3.8125 C 3.460938 -3.726562 3.363281 -3.6875 3.25 -3.6875 C 3.15625 -3.6875 3.078125 -3.703125 3.015625 -3.734375 C 2.960938 -3.773438 2.90625 -3.828125 2.84375 -3.890625 C 2.832031 -3.890625 2.8125 -3.90625 2.78125 -3.9375 C 2.75 -3.976562 2.710938 -4.003906 2.671875 -4.015625 C 2.640625 -4.035156 2.601562 -4.046875 2.5625 -4.046875 C 2.40625 -4.046875 2.269531 -3.984375 2.15625 -3.859375 C 2.050781 -3.734375 1.941406 -3.566406 1.828125 -3.359375 L 1.828125 -1.046875 C 1.828125 -0.785156 1.851562 -0.59375 1.90625 -0.46875 C 1.96875 -0.34375 2.054688 -0.257812 2.171875 -0.21875 C 2.296875 -0.1875 2.472656 -0.171875 2.703125 -0.171875 L 2.703125 0 L 0.265625 0 L 0.265625 -0.171875 L 0.3125 -0.171875 C 0.5625 -0.171875 0.738281 -0.226562 0.84375 -0.34375 C 0.957031 -0.46875 1.015625 -0.691406 1.015625 -1.015625 L 1.015625 -3.265625 C 1.015625 -3.578125 0.984375 -3.78125 0.921875 -3.875 C 0.859375 -3.96875 0.742188 -4.015625 0.578125 -4.015625 C 0.472656 -4.015625 0.390625 -3.992188 0.328125 -3.953125 L 0.265625 -4.125 L 1.65625 -4.703125 L 1.828125 -4.703125 Z M 1.828125 -3.765625 "/></g></g></g><g fill="#8bc43f" fill-opacity="1"><g transform="translate(17.886122, 7.779347)"><g><path d="M 1.640625 -6.046875 L 1.796875 -6.046875 L 1.796875 -4.59375 L 2.84375 -4.59375 L 2.84375 -4.28125 L 1.796875 -4.28125 L 1.796875 -1.09375 C 1.796875 -0.925781 1.84375 -0.773438 1.9375 -0.640625 C 2.039062 -0.503906 2.179688 -0.4375 2.359375 -0.4375 C 2.484375 -0.4375 2.585938 -0.460938 2.671875 -0.515625 C 2.765625 -0.578125 2.867188 -0.675781 2.984375 -0.8125 L 3.171875 -0.8125 C 3.003906 -0.5 2.820312 -0.257812 2.625 -0.09375 C 2.425781 0.0625 2.191406 0.140625 1.921875 0.140625 C 1.640625 0.140625 1.410156 0.0351562 1.234375 -0.171875 C 1.066406 -0.390625 0.984375 -0.6875 0.984375 -1.0625 L 0.984375 -4.28125 L 0.28125 -4.28125 L 0.28125 -4.484375 C 0.625 -4.617188 0.910156 -4.816406 1.140625 -5.078125 C 1.367188 -5.347656 1.535156 -5.671875 1.640625 -6.046875 Z M 1.640625 -6.046875 "/></g></g></g><g fill="#8bc43f" fill-opacity="1"><g transform="translate(21.17922, 7.779347)"><g><path d="M 1.8125 -1.3125 C 1.8125 -1.070312 1.882812 -0.875 2.03125 -0.71875 C 2.175781 -0.570312 2.359375 -0.5 2.578125 -0.5 C 2.765625 -0.5 2.957031 -0.546875 3.15625 -0.640625 C 3.363281 -0.742188 3.5625 -0.894531 3.75 -1.09375 L 3.75 -3.84375 C 3.75 -4.21875 3.523438 -4.40625 3.078125 -4.40625 L 2.984375 -4.40625 L 2.984375 -4.59375 L 4.5625 -4.59375 L 4.5625 -1.0625 C 4.5625 -0.945312 4.59375 -0.828125 4.65625 -0.703125 C 4.726562 -0.585938 4.84375 -0.53125 5 -0.53125 C 5.082031 -0.53125 5.191406 -0.554688 5.328125 -0.609375 L 5.328125 -0.421875 L 3.9375 0.125 L 3.75 0.125 L 3.75 -0.84375 L 3.734375 -0.84375 C 3.191406 -0.1875 2.675781 0.140625 2.1875 0.140625 C 1.9375 0.140625 1.722656 0.078125 1.546875 -0.046875 C 1.367188 -0.179688 1.234375 -0.347656 1.140625 -0.546875 C 1.054688 -0.742188 1.015625 -0.941406 1.015625 -1.140625 L 1.015625 -3.765625 C 1.015625 -4.015625 0.953125 -4.179688 0.828125 -4.265625 C 0.710938 -4.359375 0.535156 -4.40625 0.296875 -4.40625 L 0.171875 -4.40625 L 0.171875 -4.59375 L 1.8125 -4.59375 Z M 1.8125 -1.3125 "/></g></g></g><g fill="#8bc43f" fill-opacity="1"><g transform="translate(26.638052, 7.779347)"><g><path d="M 1.828125 -3.765625 L 1.84375 -3.765625 C 2.019531 -4.066406 2.207031 -4.296875 2.40625 -4.453125 C 2.601562 -4.617188 2.828125 -4.703125 3.078125 -4.703125 C 3.265625 -4.703125 3.410156 -4.644531 3.515625 -4.53125 C 3.628906 -4.425781 3.6875 -4.296875 3.6875 -4.140625 C 3.6875 -4.015625 3.640625 -3.90625 3.546875 -3.8125 C 3.460938 -3.726562 3.363281 -3.6875 3.25 -3.6875 C 3.15625 -3.6875 3.078125 -3.703125 3.015625 -3.734375 C 2.960938 -3.773438 2.90625 -3.828125 2.84375 -3.890625 C 2.832031 -3.890625 2.8125 -3.90625 2.78125 -3.9375 C 2.75 -3.976562 2.710938 -4.003906 2.671875 -4.015625 C 2.640625 -4.035156 2.601562 -4.046875 2.5625 -4.046875 C 2.40625 -4.046875 2.269531 -3.984375 2.15625 -3.859375 C 2.050781 -3.734375 1.941406 -3.566406 1.828125 -3.359375 L 1.828125 -1.046875 C 1.828125 -0.785156 1.851562 -0.59375 1.90625 -0.46875 C 1.96875 -0.34375 2.054688 -0.257812 2.171875 -0.21875 C 2.296875 -0.1875 2.472656 -0.171875 2.703125 -0.171875 L 2.703125 0 L 0.265625 0 L 0.265625 -0.171875 L 0.3125 -0.171875 C 0.5625 -0.171875 0.738281 -0.226562 0.84375 -0.34375 C 0.957031 -0.46875 1.015625 -0.691406 1.015625 -1.015625 L 1.015625 -3.265625 C 1.015625 -3.578125 0.984375 -3.78125 0.921875 -3.875 C 0.859375 -3.96875 0.742188 -4.015625 0.578125 -4.015625 C 0.472656 -4.015625 0.390625 -3.992188 0.328125 -3.953125 L 0.265625 -4.125 L 1.65625 -4.703125 L 1.828125 -4.703125 Z M 1.828125 -3.765625 "/></g></g></g><g clip-path="url(#b4e1d066d7)"><g fill="#8bc43f" fill-opacity="1"><g transform="translate(30.44539, 7.779347)"><g><path d="M 1.34375 -7.125 C 1.488281 -7.125 1.609375 -7.070312 1.703125 -6.96875 C 1.804688 -6.875 1.859375 -6.753906 1.859375 -6.609375 C 1.859375 -6.472656 1.804688 -6.351562 1.703125 -6.25 C 1.609375 -6.15625 1.488281 -6.109375 1.34375 -6.109375 C 1.207031 -6.109375 1.085938 -6.15625 0.984375 -6.25 C 0.890625 -6.351562 0.84375 -6.472656 0.84375 -6.609375 C 0.84375 -6.753906 0.890625 -6.875 0.984375 -6.96875 C 1.085938 -7.070312 1.207031 -7.125 1.34375 -7.125 Z M 1.78125 -1.03125 C 1.78125 -0.707031 1.832031 -0.484375 1.9375 -0.359375 C 2.039062 -0.242188 2.210938 -0.179688 2.453125 -0.171875 L 2.453125 0 L 0.234375 0 L 0.234375 -0.171875 C 0.503906 -0.171875 0.691406 -0.234375 0.796875 -0.359375 C 0.910156 -0.484375 0.96875 -0.710938 0.96875 -1.046875 L 0.96875 -3.4375 C 0.96875 -3.613281 0.925781 -3.757812 0.84375 -3.875 C 0.769531 -3.988281 0.648438 -4.046875 0.484375 -4.046875 C 0.410156 -4.046875 0.34375 -4.03125 0.28125 -4 L 0.234375 -4.171875 L 1.609375 -4.703125 L 1.78125 -4.703125 Z M 1.78125 -1.03125 "/></g></g></g></g><g fill="#8bc43f" fill-opacity="1"><g transform="translate(33.125355, 7.779347)"><g><path d="M 1.765625 -3.734375 C 2.109375 -4.097656 2.390625 -4.347656 2.609375 -4.484375 C 2.828125 -4.628906 3.066406 -4.703125 3.328125 -4.703125 C 3.617188 -4.703125 3.851562 -4.625 4.03125 -4.46875 C 4.207031 -4.3125 4.335938 -4.117188 4.421875 -3.890625 C 4.503906 -3.671875 4.546875 -3.453125 4.546875 -3.234375 L 4.546875 -1.046875 C 4.546875 -0.710938 4.597656 -0.488281 4.703125 -0.375 C 4.804688 -0.257812 4.984375 -0.191406 5.234375 -0.171875 L 5.234375 0 L 2.921875 0 L 2.921875 -0.171875 C 3.140625 -0.171875 3.300781 -0.191406 3.40625 -0.234375 C 3.519531 -0.285156 3.601562 -0.375 3.65625 -0.5 C 3.707031 -0.625 3.734375 -0.804688 3.734375 -1.046875 L 3.734375 -3.28125 C 3.734375 -3.488281 3.660156 -3.675781 3.515625 -3.84375 C 3.378906 -4.019531 3.191406 -4.109375 2.953125 -4.109375 C 2.742188 -4.109375 2.546875 -4.050781 2.359375 -3.9375 C 2.179688 -3.832031 1.984375 -3.671875 1.765625 -3.453125 L 1.765625 -1.046875 C 1.765625 -0.703125 1.820312 -0.472656 1.9375 -0.359375 C 2.050781 -0.242188 2.242188 -0.179688 2.515625 -0.171875 L 2.515625 0 L 0.25 0 L 0.25 -0.171875 C 0.445312 -0.191406 0.59375 -0.226562 0.6875 -0.28125 C 0.789062 -0.332031 0.859375 -0.414062 0.890625 -0.53125 C 0.929688 -0.644531 0.953125 -0.804688 0.953125 -1.015625 L 0.953125 -3.484375 C 0.953125 -3.628906 0.921875 -3.757812 0.859375 -3.875 C 0.796875 -3.988281 0.691406 -4.046875 0.546875 -4.046875 C 0.472656 -4.046875 0.410156 -4.03125 0.359375 -4 C 0.304688 -3.976562 0.269531 -3.96875 0.25 -3.96875 L 0.171875 -4.15625 L 1.609375 -4.703125 L 1.765625 -4.703125 Z M 1.765625 -3.734375 "/></g></g></g><g fill="#8bc43f" fill-opacity="1"><g transform="translate(38.584187, 7.779347)"><g><path d="M 2.515625 -4.703125 C 2.878906 -4.703125 3.21875 -4.601562 3.53125 -4.40625 L 4.609375 -4.40625 C 4.703125 -4.40625 4.753906 -4.390625 4.765625 -4.359375 C 4.785156 -4.335938 4.796875 -4.269531 4.796875 -4.15625 C 4.796875 -4.0625 4.785156 -4.003906 4.765625 -3.984375 C 4.753906 -3.960938 4.71875 -3.953125 4.65625 -3.953125 L 3.90625 -3.953125 C 4 -3.804688 4.0625 -3.671875 4.09375 -3.546875 C 4.132812 -3.421875 4.15625 -3.273438 4.15625 -3.109375 C 4.15625 -2.804688 4.082031 -2.53125 3.9375 -2.28125 C 3.800781 -2.039062 3.601562 -1.851562 3.34375 -1.71875 C 3.082031 -1.582031 2.785156 -1.515625 2.453125 -1.515625 C 2.242188 -1.515625 2.023438 -1.550781 1.796875 -1.625 C 1.535156 -1.382812 1.40625 -1.1875 1.40625 -1.03125 C 1.40625 -0.945312 1.453125 -0.875 1.546875 -0.8125 C 1.640625 -0.757812 1.835938 -0.734375 2.140625 -0.734375 L 3.28125 -0.734375 C 3.675781 -0.734375 4.019531 -0.648438 4.3125 -0.484375 C 4.601562 -0.316406 4.75 -0.0625 4.75 0.28125 C 4.75 0.59375 4.628906 0.890625 4.390625 1.171875 C 4.160156 1.453125 3.847656 1.675781 3.453125 1.84375 C 3.066406 2.007812 2.648438 2.09375 2.203125 2.09375 C 1.890625 2.09375 1.585938 2.046875 1.296875 1.953125 C 1.003906 1.867188 0.765625 1.753906 0.578125 1.609375 C 0.398438 1.460938 0.3125 1.316406 0.3125 1.171875 C 0.3125 1.046875 0.367188 0.894531 0.484375 0.71875 C 0.609375 0.539062 0.863281 0.257812 1.25 -0.125 C 0.925781 -0.226562 0.765625 -0.390625 0.765625 -0.609375 C 0.765625 -0.785156 0.832031 -0.960938 0.96875 -1.140625 C 1.101562 -1.328125 1.296875 -1.519531 1.546875 -1.71875 C 1.285156 -1.851562 1.082031 -2.039062 0.9375 -2.28125 C 0.789062 -2.53125 0.71875 -2.796875 0.71875 -3.078125 C 0.71875 -3.378906 0.796875 -3.648438 0.953125 -3.890625 C 1.109375 -4.140625 1.320312 -4.335938 1.59375 -4.484375 C 1.863281 -4.628906 2.171875 -4.703125 2.515625 -4.703125 Z M 1.5625 -3.484375 C 1.5625 -3.242188 1.59375 -2.988281 1.65625 -2.71875 C 1.726562 -2.457031 1.84375 -2.234375 2 -2.046875 C 2.15625 -1.859375 2.351562 -1.765625 2.59375 -1.765625 C 2.8125 -1.765625 2.988281 -1.867188 3.125 -2.078125 C 3.257812 -2.285156 3.328125 -2.550781 3.328125 -2.875 C 3.328125 -3.070312 3.289062 -3.289062 3.21875 -3.53125 C 3.144531 -3.769531 3.03125 -3.976562 2.875 -4.15625 C 2.726562 -4.332031 2.535156 -4.421875 2.296875 -4.421875 C 2.097656 -4.421875 1.925781 -4.335938 1.78125 -4.171875 C 1.632812 -4.003906 1.5625 -3.773438 1.5625 -3.484375 Z M 3.0625 0.015625 L 2.703125 0.015625 C 2.398438 0.015625 2.15625 0.0078125 1.96875 0 C 1.78125 -0.0078125 1.617188 -0.0351562 1.484375 -0.078125 C 1.328125 0.0859375 1.210938 0.238281 1.140625 0.375 C 1.066406 0.507812 1.03125 0.640625 1.03125 0.765625 C 1.03125 1.003906 1.191406 1.1875 1.515625 1.3125 C 1.847656 1.4375 2.242188 1.5 2.703125 1.5 C 3.035156 1.5 3.332031 1.457031 3.59375 1.375 C 3.863281 1.289062 4.070312 1.171875 4.21875 1.015625 C 4.375 0.867188 4.453125 0.703125 4.453125 0.515625 C 4.453125 0.304688 4.335938 0.171875 4.109375 0.109375 C 3.890625 0.046875 3.539062 0.015625 3.0625 0.015625 Z M 3.0625 0.015625 "/></g></g></g><g fill="#8bc43f" fill-opacity="1"><g transform="translate(43.52878, 7.779347)"><g/></g></g><g clip-path="url(#161594749d)"><g fill="#8bc43f" fill-opacity="1"><g transform="translate(46.001073, 7.779347)"><g><path d="M 6.5 -1.78125 L 6.5 -5.859375 C 6.5 -6.148438 6.445312 -6.347656 6.34375 -6.453125 C 6.238281 -6.554688 6.039062 -6.609375 5.75 -6.609375 L 5.515625 -6.609375 L 5.515625 -6.796875 L 8.015625 -6.796875 L 8.015625 -6.609375 L 7.796875 -6.609375 C 7.535156 -6.609375 7.347656 -6.59375 7.234375 -6.5625 C 7.128906 -6.53125 7.050781 -6.453125 7 -6.328125 C 6.957031 -6.210938 6.9375 -6.015625 6.9375 -5.734375 L 6.9375 0.078125 L 6.8125 0.078125 L 1.953125 -5.390625 L 1.953125 -1.140625 C 1.953125 -0.773438 2.023438 -0.519531 2.171875 -0.375 C 2.316406 -0.238281 2.570312 -0.171875 2.9375 -0.171875 L 2.9375 0 L 0.484375 0 L 0.484375 -0.171875 L 0.546875 -0.171875 C 0.859375 -0.171875 1.097656 -0.226562 1.265625 -0.34375 C 1.429688 -0.46875 1.515625 -0.679688 1.515625 -0.984375 L 1.515625 -5.828125 C 1.335938 -6.117188 1.140625 -6.320312 0.921875 -6.4375 C 0.710938 -6.550781 0.445312 -6.609375 0.125 -6.609375 L 0.125 -6.796875 L 2.109375 -6.796875 Z M 6.5 -1.78125 "/></g></g></g></g><g fill="#8bc43f" fill-opacity="1"><g transform="translate(54.13987, 7.779347)"><g><path d="M 2.359375 -4.703125 C 3.347656 -4.703125 3.84375 -4.304688 3.84375 -3.515625 L 3.84375 -0.890625 C 3.84375 -0.710938 3.867188 -0.59375 3.921875 -0.53125 C 3.972656 -0.476562 4.046875 -0.453125 4.140625 -0.453125 C 4.234375 -0.453125 4.320312 -0.476562 4.40625 -0.53125 C 4.5 -0.59375 4.625 -0.703125 4.78125 -0.859375 L 4.78125 -0.609375 C 4.53125 -0.328125 4.320312 -0.128906 4.15625 -0.015625 C 4 0.0859375 3.835938 0.140625 3.671875 0.140625 C 3.472656 0.140625 3.316406 0.0703125 3.203125 -0.0625 C 3.085938 -0.195312 3.03125 -0.394531 3.03125 -0.65625 C 2.738281 -0.382812 2.46875 -0.179688 2.21875 -0.046875 C 1.976562 0.078125 1.710938 0.140625 1.421875 0.140625 C 1.128906 0.140625 0.882812 0.03125 0.6875 -0.1875 C 0.488281 -0.40625 0.390625 -0.671875 0.390625 -0.984375 C 0.390625 -1.503906 0.671875 -1.910156 1.234375 -2.203125 C 1.765625 -2.484375 2.363281 -2.742188 3.03125 -2.984375 L 3.03125 -3.265625 C 3.03125 -3.523438 3.007812 -3.734375 2.96875 -3.890625 C 2.9375 -4.054688 2.859375 -4.1875 2.734375 -4.28125 C 2.609375 -4.375 2.410156 -4.421875 2.140625 -4.421875 C 1.890625 -4.421875 1.703125 -4.359375 1.578125 -4.234375 C 1.453125 -4.109375 1.390625 -3.953125 1.390625 -3.765625 L 1.390625 -3.515625 C 1.390625 -3.398438 1.351562 -3.304688 1.28125 -3.234375 C 1.207031 -3.160156 1.117188 -3.125 1.015625 -3.125 C 0.890625 -3.125 0.785156 -3.160156 0.703125 -3.234375 C 0.617188 -3.304688 0.578125 -3.410156 0.578125 -3.546875 C 0.578125 -3.867188 0.734375 -4.140625 1.046875 -4.359375 C 1.359375 -4.585938 1.796875 -4.703125 2.359375 -4.703125 Z M 1.234375 -1.234375 C 1.234375 -1.015625 1.300781 -0.820312 1.4375 -0.65625 C 1.582031 -0.5 1.765625 -0.421875 1.984375 -0.421875 C 2.316406 -0.421875 2.664062 -0.585938 3.03125 -0.921875 L 3.03125 -2.71875 C 2.570312 -2.53125 2.21875 -2.363281 1.96875 -2.21875 C 1.71875 -2.070312 1.53125 -1.921875 1.40625 -1.765625 C 1.289062 -1.617188 1.234375 -1.441406 1.234375 -1.234375 Z M 1.234375 -1.234375 "/></g></g></g><g fill="#8bc43f" fill-opacity="1"><g transform="translate(58.797452, 7.779347)"><g><path d="M 1.640625 -6.046875 L 1.796875 -6.046875 L 1.796875 -4.59375 L 2.84375 -4.59375 L 2.84375 -4.28125 L 1.796875 -4.28125 L 1.796875 -1.09375 C 1.796875 -0.925781 1.84375 -0.773438 1.9375 -0.640625 C 2.039062 -0.503906 2.179688 -0.4375 2.359375 -0.4375 C 2.484375 -0.4375 2.585938 -0.460938 2.671875 -0.515625 C 2.765625 -0.578125 2.867188 -0.675781 2.984375 -0.8125 L 3.171875 -0.8125 C 3.003906 -0.5 2.820312 -0.257812 2.625 -0.09375 C 2.425781 0.0625 2.191406 0.140625 1.921875 0.140625 C 1.640625 0.140625 1.410156 0.0351562 1.234375 -0.171875 C 1.066406 -0.390625 0.984375 -0.6875 0.984375 -1.0625 L 0.984375 -4.28125 L 0.28125 -4.28125 L 0.28125 -4.484375 C 0.625 -4.617188 0.910156 -4.816406 1.140625 -5.078125 C 1.367188 -5.347656 1.535156 -5.671875 1.640625 -6.046875 Z M 1.640625 -6.046875 "/></g></g></g><g fill="#8bc43f" fill-opacity="1"><g transform="translate(62.090551, 7.779347)"><g><path d="M 1.8125 -1.3125 C 1.8125 -1.070312 1.882812 -0.875 2.03125 -0.71875 C 2.175781 -0.570312 2.359375 -0.5 2.578125 -0.5 C 2.765625 -0.5 2.957031 -0.546875 3.15625 -0.640625 C 3.363281 -0.742188 3.5625 -0.894531 3.75 -1.09375 L 3.75 -3.84375 C 3.75 -4.21875 3.523438 -4.40625 3.078125 -4.40625 L 2.984375 -4.40625 L 2.984375 -4.59375 L 4.5625 -4.59375 L 4.5625 -1.0625 C 4.5625 -0.945312 4.59375 -0.828125 4.65625 -0.703125 C 4.726562 -0.585938 4.84375 -0.53125 5 -0.53125 C 5.082031 -0.53125 5.191406 -0.554688 5.328125 -0.609375 L 5.328125 -0.421875 L 3.9375 0.125 L 3.75 0.125 L 3.75 -0.84375 L 3.734375 -0.84375 C 3.191406 -0.1875 2.675781 0.140625 2.1875 0.140625 C 1.9375 0.140625 1.722656 0.078125 1.546875 -0.046875 C 1.367188 -0.179688 1.234375 -0.347656 1.140625 -0.546875 C 1.054688 -0.742188 1.015625 -0.941406 1.015625 -1.140625 L 1.015625 -3.765625 C 1.015625 -4.015625 0.953125 -4.179688 0.828125 -4.265625 C 0.710938 -4.359375 0.535156 -4.40625 0.296875 -4.40625 L 0.171875 -4.40625 L 0.171875 -4.59375 L 1.8125 -4.59375 Z M 1.8125 -1.3125 "/></g></g></g><g fill="#8bc43f" fill-opacity="1"><g transform="translate(67.549383, 7.779347)"><g><path d="M 1.828125 -3.765625 L 1.84375 -3.765625 C 2.019531 -4.066406 2.207031 -4.296875 2.40625 -4.453125 C 2.601562 -4.617188 2.828125 -4.703125 3.078125 -4.703125 C 3.265625 -4.703125 3.410156 -4.644531 3.515625 -4.53125 C 3.628906 -4.425781 3.6875 -4.296875 3.6875 -4.140625 C 3.6875 -4.015625 3.640625 -3.90625 3.546875 -3.8125 C 3.460938 -3.726562 3.363281 -3.6875 3.25 -3.6875 C 3.15625 -3.6875 3.078125 -3.703125 3.015625 -3.734375 C 2.960938 -3.773438 2.90625 -3.828125 2.84375 -3.890625 C 2.832031 -3.890625 2.8125 -3.90625 2.78125 -3.9375 C 2.75 -3.976562 2.710938 -4.003906 2.671875 -4.015625 C 2.640625 -4.035156 2.601562 -4.046875 2.5625 -4.046875 C 2.40625 -4.046875 2.269531 -3.984375 2.15625 -3.859375 C 2.050781 -3.734375 1.941406 -3.566406 1.828125 -3.359375 L 1.828125 -1.046875 C 1.828125 -0.785156 1.851562 -0.59375 1.90625 -0.46875 C 1.96875 -0.34375 2.054688 -0.257812 2.171875 -0.21875 C 2.296875 -0.1875 2.472656 -0.171875 2.703125 -0.171875 L 2.703125 0 L 0.265625 0 L 0.265625 -0.171875 L 0.3125 -0.171875 C 0.5625 -0.171875 0.738281 -0.226562 0.84375 -0.34375 C 0.957031 -0.46875 1.015625 -0.691406 1.015625 -1.015625 L 1.015625 -3.265625 C 1.015625 -3.578125 0.984375 -3.78125 0.921875 -3.875 C 0.859375 -3.96875 0.742188 -4.015625 0.578125 -4.015625 C 0.472656 -4.015625 0.390625 -3.992188 0.328125 -3.953125 L 0.265625 -4.125 L 1.65625 -4.703125 L 1.828125 -4.703125 Z M 1.828125 -3.765625 "/></g></g></g><g fill="#8bc43f" fill-opacity="1"><g transform="translate(71.228059, 7.779347)"><g><path d="M 2.328125 -4.703125 C 2.835938 -4.703125 3.253906 -4.53125 3.578125 -4.1875 C 3.898438 -3.84375 4.0625 -3.394531 4.0625 -2.84375 L 0.953125 -2.84375 L 0.953125 -2.71875 C 0.953125 -2.375 1.019531 -2.039062 1.15625 -1.71875 C 1.289062 -1.394531 1.484375 -1.132812 1.734375 -0.9375 C 1.984375 -0.738281 2.269531 -0.640625 2.59375 -0.640625 C 3.21875 -0.640625 3.65625 -0.988281 3.90625 -1.6875 L 4.0625 -1.609375 C 3.945312 -1.066406 3.722656 -0.640625 3.390625 -0.328125 C 3.066406 -0.015625 2.675781 0.140625 2.21875 0.140625 C 1.875 0.140625 1.554688 0.0507812 1.265625 -0.125 C 0.972656 -0.300781 0.734375 -0.566406 0.546875 -0.921875 C 0.367188 -1.285156 0.28125 -1.71875 0.28125 -2.21875 C 0.28125 -2.707031 0.363281 -3.140625 0.53125 -3.515625 C 0.707031 -3.890625 0.945312 -4.179688 1.25 -4.390625 C 1.5625 -4.597656 1.921875 -4.703125 2.328125 -4.703125 Z M 2.046875 -4.359375 C 1.765625 -4.359375 1.523438 -4.25 1.328125 -4.03125 C 1.128906 -3.8125 1.007812 -3.519531 0.96875 -3.15625 L 3.03125 -3.15625 C 3.019531 -3.507812 2.929688 -3.796875 2.765625 -4.015625 C 2.597656 -4.242188 2.359375 -4.359375 2.046875 -4.359375 Z M 2.046875 -4.359375 "/></g></g></g><g fill="#8bc43f" fill-opacity="1"><g transform="translate(75.06468, 7.779347)"><g><path d="M 1.25 -0.984375 C 1.476562 -0.984375 1.664062 -0.890625 1.8125 -0.703125 C 1.96875 -0.515625 2.046875 -0.273438 2.046875 0.015625 C 2.046875 0.398438 1.925781 0.722656 1.6875 0.984375 C 1.445312 1.253906 1.085938 1.476562 0.609375 1.65625 L 0.609375 1.46875 C 0.984375 1.34375 1.253906 1.15625 1.421875 0.90625 C 1.597656 0.664062 1.6875 0.429688 1.6875 0.203125 C 1.6875 0.128906 1.671875 0.0703125 1.640625 0.03125 C 1.617188 0 1.585938 -0.015625 1.546875 -0.015625 C 1.515625 -0.015625 1.457031 0.0078125 1.375 0.0625 C 1.300781 0.113281 1.222656 0.140625 1.140625 0.140625 C 0.992188 0.140625 0.867188 0.0859375 0.765625 -0.015625 C 0.660156 -0.117188 0.609375 -0.242188 0.609375 -0.390625 C 0.609375 -0.554688 0.671875 -0.695312 0.796875 -0.8125 C 0.921875 -0.925781 1.070312 -0.984375 1.25 -0.984375 Z M 1.25 -0.984375 "/></g></g></g><g fill="#8bc43f" fill-opacity="1"><g transform="translate(77.744645, 7.779347)"><g/></g></g><g clip-path="url(#6b4bf604e1)"><g fill="#8bc43f" fill-opacity="1"><g transform="translate(80.216938, 7.779347)"><g><path d="M 2.5 -6.9375 C 2.71875 -6.9375 2.910156 -6.914062 3.078125 -6.875 C 3.242188 -6.832031 3.410156 -6.773438 3.578125 -6.703125 C 3.660156 -6.671875 3.742188 -6.640625 3.828125 -6.609375 C 3.910156 -6.585938 3.988281 -6.578125 4.0625 -6.578125 C 4.21875 -6.578125 4.34375 -6.695312 4.4375 -6.9375 L 4.625 -6.9375 L 4.625 -4.6875 L 4.4375 -4.6875 C 4.394531 -5.039062 4.285156 -5.359375 4.109375 -5.640625 C 3.941406 -5.929688 3.726562 -6.15625 3.46875 -6.3125 C 3.207031 -6.476562 2.925781 -6.5625 2.625 -6.5625 C 2.300781 -6.5625 2.023438 -6.460938 1.796875 -6.265625 C 1.566406 -6.078125 1.453125 -5.84375 1.453125 -5.5625 C 1.453125 -5.238281 1.609375 -4.960938 1.921875 -4.734375 C 2.148438 -4.566406 2.46875 -4.367188 2.875 -4.140625 C 3.226562 -3.921875 3.519531 -3.726562 3.75 -3.5625 C 3.988281 -3.40625 4.210938 -3.238281 4.421875 -3.0625 C 4.609375 -2.882812 4.753906 -2.675781 4.859375 -2.4375 C 4.972656 -2.207031 5.03125 -1.972656 5.03125 -1.734375 C 5.03125 -1.390625 4.9375 -1.070312 4.75 -0.78125 C 4.5625 -0.5 4.304688 -0.273438 3.984375 -0.109375 C 3.671875 0.0546875 3.320312 0.140625 2.9375 0.140625 C 2.695312 0.140625 2.476562 0.117188 2.28125 0.078125 C 2.09375 0.0351562 1.898438 -0.0195312 1.703125 -0.09375 C 1.472656 -0.164062 1.304688 -0.203125 1.203125 -0.203125 C 1.023438 -0.203125 0.890625 -0.0859375 0.796875 0.140625 L 0.609375 0.140625 L 0.609375 -2.140625 L 0.796875 -2.140625 C 0.898438 -1.546875 1.117188 -1.078125 1.453125 -0.734375 C 1.785156 -0.398438 2.21875 -0.234375 2.75 -0.234375 C 3.125 -0.234375 3.429688 -0.332031 3.671875 -0.53125 C 3.921875 -0.738281 4.046875 -1 4.046875 -1.3125 C 4.046875 -1.46875 4.015625 -1.609375 3.953125 -1.734375 C 3.898438 -1.867188 3.800781 -2.015625 3.65625 -2.171875 C 3.53125 -2.296875 3.351562 -2.4375 3.125 -2.59375 C 2.894531 -2.75 2.585938 -2.941406 2.203125 -3.171875 C 1.878906 -3.367188 1.628906 -3.523438 1.453125 -3.640625 C 1.285156 -3.753906 1.160156 -3.859375 1.078125 -3.953125 C 0.742188 -4.285156 0.578125 -4.695312 0.578125 -5.1875 C 0.578125 -5.507812 0.660156 -5.804688 0.828125 -6.078125 C 0.992188 -6.347656 1.222656 -6.554688 1.515625 -6.703125 C 1.804688 -6.859375 2.132812 -6.9375 2.5 -6.9375 Z M 2.5 -6.9375 "/></g></g></g></g><g fill="#8bc43f" fill-opacity="1"><g transform="translate(85.67577, 7.779347)"><g><path d="M 1.8125 -1.3125 C 1.8125 -1.070312 1.882812 -0.875 2.03125 -0.71875 C 2.175781 -0.570312 2.359375 -0.5 2.578125 -0.5 C 2.765625 -0.5 2.957031 -0.546875 3.15625 -0.640625 C 3.363281 -0.742188 3.5625 -0.894531 3.75 -1.09375 L 3.75 -3.84375 C 3.75 -4.21875 3.523438 -4.40625 3.078125 -4.40625 L 2.984375 -4.40625 L 2.984375 -4.59375 L 4.5625 -4.59375 L 4.5625 -1.0625 C 4.5625 -0.945312 4.59375 -0.828125 4.65625 -0.703125 C 4.726562 -0.585938 4.84375 -0.53125 5 -0.53125 C 5.082031 -0.53125 5.191406 -0.554688 5.328125 -0.609375 L 5.328125 -0.421875 L 3.9375 0.125 L 3.75 0.125 L 3.75 -0.84375 L 3.734375 -0.84375 C 3.191406 -0.1875 2.675781 0.140625 2.1875 0.140625 C 1.9375 0.140625 1.722656 0.078125 1.546875 -0.046875 C 1.367188 -0.179688 1.234375 -0.347656 1.140625 -0.546875 C 1.054688 -0.742188 1.015625 -0.941406 1.015625 -1.140625 L 1.015625 -3.765625 C 1.015625 -4.015625 0.953125 -4.179688 0.828125 -4.265625 C 0.710938 -4.359375 0.535156 -4.40625 0.296875 -4.40625 L 0.171875 -4.40625 L 0.171875 -4.59375 L 1.8125 -4.59375 Z M 1.8125 -1.3125 "/></g></g></g><g fill="#8bc43f" fill-opacity="1"><g transform="translate(91.134602, 7.779347)"><g><path d="M 1.859375 -4.703125 C 2.046875 -4.703125 2.238281 -4.664062 2.4375 -4.59375 C 2.582031 -4.550781 2.695312 -4.53125 2.78125 -4.53125 C 2.84375 -4.53125 2.90625 -4.550781 2.96875 -4.59375 L 3.140625 -4.59375 L 3.140625 -3.1875 L 2.96875 -3.1875 C 2.914062 -3.550781 2.785156 -3.847656 2.578125 -4.078125 C 2.378906 -4.304688 2.132812 -4.421875 1.84375 -4.421875 C 1.613281 -4.421875 1.421875 -4.363281 1.265625 -4.25 C 1.117188 -4.132812 1.046875 -3.984375 1.046875 -3.796875 C 1.046875 -3.648438 1.085938 -3.519531 1.171875 -3.40625 C 1.253906 -3.300781 1.367188 -3.203125 1.515625 -3.109375 C 1.660156 -3.015625 1.894531 -2.882812 2.21875 -2.71875 C 2.625 -2.5 2.9375 -2.285156 3.15625 -2.078125 C 3.375 -1.867188 3.484375 -1.582031 3.484375 -1.21875 C 3.484375 -0.90625 3.398438 -0.644531 3.234375 -0.4375 C 3.078125 -0.238281 2.882812 -0.09375 2.65625 0 C 2.425781 0.09375 2.207031 0.140625 2 0.140625 C 1.8125 0.140625 1.546875 0.09375 1.203125 0 C 1.054688 -0.0390625 0.957031 -0.0625 0.90625 -0.0625 C 0.8125 -0.0625 0.75 -0.0390625 0.71875 0 L 0.515625 0 L 0.515625 -1.546875 L 0.6875 -1.546875 C 0.726562 -1.140625 0.875 -0.804688 1.125 -0.546875 C 1.375 -0.296875 1.671875 -0.171875 2.015625 -0.171875 C 2.222656 -0.171875 2.398438 -0.234375 2.546875 -0.359375 C 2.703125 -0.492188 2.78125 -0.660156 2.78125 -0.859375 C 2.78125 -1.085938 2.710938 -1.269531 2.578125 -1.40625 C 2.453125 -1.539062 2.304688 -1.65625 2.140625 -1.75 C 1.984375 -1.84375 1.875 -1.898438 1.8125 -1.921875 C 1.789062 -1.941406 1.703125 -2 1.546875 -2.09375 C 1.304688 -2.21875 1.113281 -2.332031 0.96875 -2.4375 C 0.832031 -2.539062 0.710938 -2.671875 0.609375 -2.828125 C 0.515625 -2.992188 0.46875 -3.203125 0.46875 -3.453125 C 0.46875 -3.816406 0.597656 -4.113281 0.859375 -4.34375 C 1.117188 -4.582031 1.453125 -4.703125 1.859375 -4.703125 Z M 1.859375 -4.703125 "/></g></g></g><g fill="#8bc43f" fill-opacity="1"><g transform="translate(94.941939, 7.779347)"><g><path d="M 1.640625 -6.046875 L 1.796875 -6.046875 L 1.796875 -4.59375 L 2.84375 -4.59375 L 2.84375 -4.28125 L 1.796875 -4.28125 L 1.796875 -1.09375 C 1.796875 -0.925781 1.84375 -0.773438 1.9375 -0.640625 C 2.039062 -0.503906 2.179688 -0.4375 2.359375 -0.4375 C 2.484375 -0.4375 2.585938 -0.460938 2.671875 -0.515625 C 2.765625 -0.578125 2.867188 -0.675781 2.984375 -0.8125 L 3.171875 -0.8125 C 3.003906 -0.5 2.820312 -0.257812 2.625 -0.09375 C 2.425781 0.0625 2.191406 0.140625 1.921875 0.140625 C 1.640625 0.140625 1.410156 0.0351562 1.234375 -0.171875 C 1.066406 -0.390625 0.984375 -0.6875 0.984375 -1.0625 L 0.984375 -4.28125 L 0.28125 -4.28125 L 0.28125 -4.484375 C 0.625 -4.617188 0.910156 -4.816406 1.140625 -5.078125 C 1.367188 -5.347656 1.535156 -5.671875 1.640625 -6.046875 Z M 1.640625 -6.046875 "/></g></g></g><g fill="#8bc43f" fill-opacity="1"><g transform="translate(98.235038, 7.779347)"><g><path d="M 2.359375 -4.703125 C 3.347656 -4.703125 3.84375 -4.304688 3.84375 -3.515625 L 3.84375 -0.890625 C 3.84375 -0.710938 3.867188 -0.59375 3.921875 -0.53125 C 3.972656 -0.476562 4.046875 -0.453125 4.140625 -0.453125 C 4.234375 -0.453125 4.320312 -0.476562 4.40625 -0.53125 C 4.5 -0.59375 4.625 -0.703125 4.78125 -0.859375 L 4.78125 -0.609375 C 4.53125 -0.328125 4.320312 -0.128906 4.15625 -0.015625 C 4 0.0859375 3.835938 0.140625 3.671875 0.140625 C 3.472656 0.140625 3.316406 0.0703125 3.203125 -0.0625 C 3.085938 -0.195312 3.03125 -0.394531 3.03125 -0.65625 C 2.738281 -0.382812 2.46875 -0.179688 2.21875 -0.046875 C 1.976562 0.078125 1.710938 0.140625 1.421875 0.140625 C 1.128906 0.140625 0.882812 0.03125 0.6875 -0.1875 C 0.488281 -0.40625 0.390625 -0.671875 0.390625 -0.984375 C 0.390625 -1.503906 0.671875 -1.910156 1.234375 -2.203125 C 1.765625 -2.484375 2.363281 -2.742188 3.03125 -2.984375 L 3.03125 -3.265625 C 3.03125 -3.523438 3.007812 -3.734375 2.96875 -3.890625 C 2.9375 -4.054688 2.859375 -4.1875 2.734375 -4.28125 C 2.609375 -4.375 2.410156 -4.421875 2.140625 -4.421875 C 1.890625 -4.421875 1.703125 -4.359375 1.578125 -4.234375 C 1.453125 -4.109375 1.390625 -3.953125 1.390625 -3.765625 L 1.390625 -3.515625 C 1.390625 -3.398438 1.351562 -3.304688 1.28125 -3.234375 C 1.207031 -3.160156 1.117188 -3.125 1.015625 -3.125 C 0.890625 -3.125 0.785156 -3.160156 0.703125 -3.234375 C 0.617188 -3.304688 0.578125 -3.410156 0.578125 -3.546875 C 0.578125 -3.867188 0.734375 -4.140625 1.046875 -4.359375 C 1.359375 -4.585938 1.796875 -4.703125 2.359375 -4.703125 Z M 1.234375 -1.234375 C 1.234375 -1.015625 1.300781 -0.820312 1.4375 -0.65625 C 1.582031 -0.5 1.765625 -0.421875 1.984375 -0.421875 C 2.316406 -0.421875 2.664062 -0.585938 3.03125 -0.921875 L 3.03125 -2.71875 C 2.570312 -2.53125 2.21875 -2.363281 1.96875 -2.21875 C 1.71875 -2.070312 1.53125 -1.921875 1.40625 -1.765625 C 1.289062 -1.617188 1.234375 -1.441406 1.234375 -1.234375 Z M 1.234375 -1.234375 "/></g></g></g><g clip-path="url(#e349ac95cf)"><g fill="#8bc43f" fill-opacity="1"><g transform="translate(103.179631, 7.779347)"><g><path d="M 1.34375 -7.125 C 1.488281 -7.125 1.609375 -7.070312 1.703125 -6.96875 C 1.804688 -6.875 1.859375 -6.753906 1.859375 -6.609375 C 1.859375 -6.472656 1.804688 -6.351562 1.703125 -6.25 C 1.609375 -6.15625 1.488281 -6.109375 1.34375 -6.109375 C 1.207031 -6.109375 1.085938 -6.15625 0.984375 -6.25 C 0.890625 -6.351562 0.84375 -6.472656 0.84375 -6.609375 C 0.84375 -6.753906 0.890625 -6.875 0.984375 -6.96875 C 1.085938 -7.070312 1.207031 -7.125 1.34375 -7.125 Z M 1.78125 -1.03125 C 1.78125 -0.707031 1.832031 -0.484375 1.9375 -0.359375 C 2.039062 -0.242188 2.210938 -0.179688 2.453125 -0.171875 L 2.453125 0 L 0.234375 0 L 0.234375 -0.171875 C 0.503906 -0.171875 0.691406 -0.234375 0.796875 -0.359375 C 0.910156 -0.484375 0.96875 -0.710938 0.96875 -1.046875 L 0.96875 -3.4375 C 0.96875 -3.613281 0.925781 -3.757812 0.84375 -3.875 C 0.769531 -3.988281 0.648438 -4.046875 0.484375 -4.046875 C 0.410156 -4.046875 0.34375 -4.03125 0.28125 -4 L 0.234375 -4.171875 L 1.609375 -4.703125 L 1.78125 -4.703125 Z M 1.78125 -1.03125 "/></g></g></g></g><g fill="#8bc43f" fill-opacity="1"><g transform="translate(105.859596, 7.779347)"><g><path d="M 1.765625 -3.734375 C 2.109375 -4.097656 2.390625 -4.347656 2.609375 -4.484375 C 2.828125 -4.628906 3.066406 -4.703125 3.328125 -4.703125 C 3.617188 -4.703125 3.851562 -4.625 4.03125 -4.46875 C 4.207031 -4.3125 4.335938 -4.117188 4.421875 -3.890625 C 4.503906 -3.671875 4.546875 -3.453125 4.546875 -3.234375 L 4.546875 -1.046875 C 4.546875 -0.710938 4.597656 -0.488281 4.703125 -0.375 C 4.804688 -0.257812 4.984375 -0.191406 5.234375 -0.171875 L 5.234375 0 L 2.921875 0 L 2.921875 -0.171875 C 3.140625 -0.171875 3.300781 -0.191406 3.40625 -0.234375 C 3.519531 -0.285156 3.601562 -0.375 3.65625 -0.5 C 3.707031 -0.625 3.734375 -0.804688 3.734375 -1.046875 L 3.734375 -3.28125 C 3.734375 -3.488281 3.660156 -3.675781 3.515625 -3.84375 C 3.378906 -4.019531 3.191406 -4.109375 2.953125 -4.109375 C 2.742188 -4.109375 2.546875 -4.050781 2.359375 -3.9375 C 2.179688 -3.832031 1.984375 -3.671875 1.765625 -3.453125 L 1.765625 -1.046875 C 1.765625 -0.703125 1.820312 -0.472656 1.9375 -0.359375 C 2.050781 -0.242188 2.242188 -0.179688 2.515625 -0.171875 L 2.515625 0 L 0.25 0 L 0.25 -0.171875 C 0.445312 -0.191406 0.59375 -0.226562 0.6875 -0.28125 C 0.789062 -0.332031 0.859375 -0.414062 0.890625 -0.53125 C 0.929688 -0.644531 0.953125 -0.804688 0.953125 -1.015625 L 0.953125 -3.484375 C 0.953125 -3.628906 0.921875 -3.757812 0.859375 -3.875 C 0.796875 -3.988281 0.691406 -4.046875 0.546875 -4.046875 C 0.472656 -4.046875 0.410156 -4.03125 0.359375 -4 C 0.304688 -3.976562 0.269531 -3.96875 0.25 -3.96875 L 0.171875 -4.15625 L 1.609375 -4.703125 L 1.765625 -4.703125 Z M 1.765625 -3.734375 "/></g></g></g><g clip-path="url(#951f57a545)"><g fill="#8bc43f" fill-opacity="1"><g transform="translate(111.318428, 7.779347)"><g><path d="M 1.34375 -7.125 C 1.488281 -7.125 1.609375 -7.070312 1.703125 -6.96875 C 1.804688 -6.875 1.859375 -6.753906 1.859375 -6.609375 C 1.859375 -6.472656 1.804688 -6.351562 1.703125 -6.25 C 1.609375 -6.15625 1.488281 -6.109375 1.34375 -6.109375 C 1.207031 -6.109375 1.085938 -6.15625 0.984375 -6.25 C 0.890625 -6.351562 0.84375 -6.472656 0.84375 -6.609375 C 0.84375 -6.753906 0.890625 -6.875 0.984375 -6.96875 C 1.085938 -7.070312 1.207031 -7.125 1.34375 -7.125 Z M 1.78125 -1.03125 C 1.78125 -0.707031 1.832031 -0.484375 1.9375 -0.359375 C 2.039062 -0.242188 2.210938 -0.179688 2.453125 -0.171875 L 2.453125 0 L 0.234375 0 L 0.234375 -0.171875 C 0.503906 -0.171875 0.691406 -0.234375 0.796875 -0.359375 C 0.910156 -0.484375 0.96875 -0.710938 0.96875 -1.046875 L 0.96875 -3.4375 C 0.96875 -3.613281 0.925781 -3.757812 0.84375 -3.875 C 0.769531 -3.988281 0.648438 -4.046875 0.484375 -4.046875 C 0.410156 -4.046875 0.34375 -4.03125 0.28125 -4 L 0.234375 -4.171875 L 1.609375 -4.703125 L 1.78125 -4.703125 Z M 1.78125 -1.03125 "/></g></g></g></g><g fill="#8bc43f" fill-opacity="1"><g transform="translate(113.998393, 7.779347)"><g><path d="M 1.765625 -3.734375 C 2.109375 -4.097656 2.390625 -4.347656 2.609375 -4.484375 C 2.828125 -4.628906 3.066406 -4.703125 3.328125 -4.703125 C 3.617188 -4.703125 3.851562 -4.625 4.03125 -4.46875 C 4.207031 -4.3125 4.335938 -4.117188 4.421875 -3.890625 C 4.503906 -3.671875 4.546875 -3.453125 4.546875 -3.234375 L 4.546875 -1.046875 C 4.546875 -0.710938 4.597656 -0.488281 4.703125 -0.375 C 4.804688 -0.257812 4.984375 -0.191406 5.234375 -0.171875 L 5.234375 0 L 2.921875 0 L 2.921875 -0.171875 C 3.140625 -0.171875 3.300781 -0.191406 3.40625 -0.234375 C 3.519531 -0.285156 3.601562 -0.375 3.65625 -0.5 C 3.707031 -0.625 3.734375 -0.804688 3.734375 -1.046875 L 3.734375 -3.28125 C 3.734375 -3.488281 3.660156 -3.675781 3.515625 -3.84375 C 3.378906 -4.019531 3.191406 -4.109375 2.953125 -4.109375 C 2.742188 -4.109375 2.546875 -4.050781 2.359375 -3.9375 C 2.179688 -3.832031 1.984375 -3.671875 1.765625 -3.453125 L 1.765625 -1.046875 C 1.765625 -0.703125 1.820312 -0.472656 1.9375 -0.359375 C 2.050781 -0.242188 2.242188 -0.179688 2.515625 -0.171875 L 2.515625 0 L 0.25 0 L 0.25 -0.171875 C 0.445312 -0.191406 0.59375 -0.226562 0.6875 -0.28125 C 0.789062 -0.332031 0.859375 -0.414062 0.890625 -0.53125 C 0.929688 -0.644531 0.953125 -0.804688 0.953125 -1.015625 L 0.953125 -3.484375 C 0.953125 -3.628906 0.921875 -3.757812 0.859375 -3.875 C 0.796875 -3.988281 0.691406 -4.046875 0.546875 -4.046875 C 0.472656 -4.046875 0.410156 -4.03125 0.359375 -4 C 0.304688 -3.976562 0.269531 -3.96875 0.25 -3.96875 L 0.171875 -4.15625 L 1.609375 -4.703125 L 1.765625 -4.703125 Z M 1.765625 -3.734375 "/></g></g></g><g fill="#8bc43f" fill-opacity="1"><g transform="translate(119.457225, 7.779347)"><g><path d="M 2.515625 -4.703125 C 2.878906 -4.703125 3.21875 -4.601562 3.53125 -4.40625 L 4.609375 -4.40625 C 4.703125 -4.40625 4.753906 -4.390625 4.765625 -4.359375 C 4.785156 -4.335938 4.796875 -4.269531 4.796875 -4.15625 C 4.796875 -4.0625 4.785156 -4.003906 4.765625 -3.984375 C 4.753906 -3.960938 4.71875 -3.953125 4.65625 -3.953125 L 3.90625 -3.953125 C 4 -3.804688 4.0625 -3.671875 4.09375 -3.546875 C 4.132812 -3.421875 4.15625 -3.273438 4.15625 -3.109375 C 4.15625 -2.804688 4.082031 -2.53125 3.9375 -2.28125 C 3.800781 -2.039062 3.601562 -1.851562 3.34375 -1.71875 C 3.082031 -1.582031 2.785156 -1.515625 2.453125 -1.515625 C 2.242188 -1.515625 2.023438 -1.550781 1.796875 -1.625 C 1.535156 -1.382812 1.40625 -1.1875 1.40625 -1.03125 C 1.40625 -0.945312 1.453125 -0.875 1.546875 -0.8125 C 1.640625 -0.757812 1.835938 -0.734375 2.140625 -0.734375 L 3.28125 -0.734375 C 3.675781 -0.734375 4.019531 -0.648438 4.3125 -0.484375 C 4.601562 -0.316406 4.75 -0.0625 4.75 0.28125 C 4.75 0.59375 4.628906 0.890625 4.390625 1.171875 C 4.160156 1.453125 3.847656 1.675781 3.453125 1.84375 C 3.066406 2.007812 2.648438 2.09375 2.203125 2.09375 C 1.890625 2.09375 1.585938 2.046875 1.296875 1.953125 C 1.003906 1.867188 0.765625 1.753906 0.578125 1.609375 C 0.398438 1.460938 0.3125 1.316406 0.3125 1.171875 C 0.3125 1.046875 0.367188 0.894531 0.484375 0.71875 C 0.609375 0.539062 0.863281 0.257812 1.25 -0.125 C 0.925781 -0.226562 0.765625 -0.390625 0.765625 -0.609375 C 0.765625 -0.785156 0.832031 -0.960938 0.96875 -1.140625 C 1.101562 -1.328125 1.296875 -1.519531 1.546875 -1.71875 C 1.285156 -1.851562 1.082031 -2.039062 0.9375 -2.28125 C 0.789062 -2.53125 0.71875 -2.796875 0.71875 -3.078125 C 0.71875 -3.378906 0.796875 -3.648438 0.953125 -3.890625 C 1.109375 -4.140625 1.320312 -4.335938 1.59375 -4.484375 C 1.863281 -4.628906 2.171875 -4.703125 2.515625 -4.703125 Z M 1.5625 -3.484375 C 1.5625 -3.242188 1.59375 -2.988281 1.65625 -2.71875 C 1.726562 -2.457031 1.84375 -2.234375 2 -2.046875 C 2.15625 -1.859375 2.351562 -1.765625 2.59375 -1.765625 C 2.8125 -1.765625 2.988281 -1.867188 3.125 -2.078125 C 3.257812 -2.285156 3.328125 -2.550781 3.328125 -2.875 C 3.328125 -3.070312 3.289062 -3.289062 3.21875 -3.53125 C 3.144531 -3.769531 3.03125 -3.976562 2.875 -4.15625 C 2.726562 -4.332031 2.535156 -4.421875 2.296875 -4.421875 C 2.097656 -4.421875 1.925781 -4.335938 1.78125 -4.171875 C 1.632812 -4.003906 1.5625 -3.773438 1.5625 -3.484375 Z M 3.0625 0.015625 L 2.703125 0.015625 C 2.398438 0.015625 2.15625 0.0078125 1.96875 0 C 1.78125 -0.0078125 1.617188 -0.0351562 1.484375 -0.078125 C 1.328125 0.0859375 1.210938 0.238281 1.140625 0.375 C 1.066406 0.507812 1.03125 0.640625 1.03125 0.765625 C 1.03125 1.003906 1.191406 1.1875 1.515625 1.3125 C 1.847656 1.4375 2.242188 1.5 2.703125 1.5 C 3.035156 1.5 3.332031 1.457031 3.59375 1.375 C 3.863281 1.289062 4.070312 1.171875 4.21875 1.015625 C 4.375 0.867188 4.453125 0.703125 4.453125 0.515625 C 4.453125 0.304688 4.335938 0.171875 4.109375 0.109375 C 3.890625 0.046875 3.539062 0.015625 3.0625 0.015625 Z M 3.0625 0.015625 "/></g></g></g><g fill="#8bc43f" fill-opacity="1"><g transform="translate(124.401818, 7.779347)"><g/></g></g><g clip-path="url(#cc6b59efa9)"><g fill="#8bc43f" fill-opacity="1"><g transform="translate(126.87411, 7.779347)"><g><path d="M 3.46875 -6.609375 C 3.125 -6.609375 2.875 -6.554688 2.71875 -6.453125 C 2.570312 -6.347656 2.5 -6.128906 2.5 -5.796875 L 2.5 -0.828125 C 2.5 -0.691406 2.523438 -0.59375 2.578125 -0.53125 C 2.640625 -0.46875 2.738281 -0.4375 2.875 -0.4375 L 4.34375 -0.4375 C 4.6875 -0.4375 4.96875 -0.484375 5.1875 -0.578125 C 5.414062 -0.671875 5.609375 -0.816406 5.765625 -1.015625 C 5.929688 -1.210938 6.085938 -1.5 6.234375 -1.875 L 6.40625 -1.8125 L 5.828125 0 L 0.421875 0 L 0.421875 -0.171875 L 0.484375 -0.171875 C 0.816406 -0.171875 1.054688 -0.226562 1.203125 -0.34375 C 1.359375 -0.46875 1.4375 -0.6875 1.4375 -1 L 1.4375 -5.8125 C 1.4375 -6.113281 1.359375 -6.320312 1.203125 -6.4375 C 1.046875 -6.550781 0.800781 -6.609375 0.46875 -6.609375 L 0.421875 -6.609375 L 0.421875 -6.796875 L 3.46875 -6.796875 Z M 3.46875 -6.609375 "/></g></g></g></g><g clip-path="url(#d044ab5879)"><g fill="#8bc43f" fill-opacity="1"><g transform="translate(133.470206, 7.779347)"><g><path d="M 1.34375 -7.125 C 1.488281 -7.125 1.609375 -7.070312 1.703125 -6.96875 C 1.804688 -6.875 1.859375 -6.753906 1.859375 -6.609375 C 1.859375 -6.472656 1.804688 -6.351562 1.703125 -6.25 C 1.609375 -6.15625 1.488281 -6.109375 1.34375 -6.109375 C 1.207031 -6.109375 1.085938 -6.15625 0.984375 -6.25 C 0.890625 -6.351562 0.84375 -6.472656 0.84375 -6.609375 C 0.84375 -6.753906 0.890625 -6.875 0.984375 -6.96875 C 1.085938 -7.070312 1.207031 -7.125 1.34375 -7.125 Z M 1.78125 -1.03125 C 1.78125 -0.707031 1.832031 -0.484375 1.9375 -0.359375 C 2.039062 -0.242188 2.210938 -0.179688 2.453125 -0.171875 L 2.453125 0 L 0.234375 0 L 0.234375 -0.171875 C 0.503906 -0.171875 0.691406 -0.234375 0.796875 -0.359375 C 0.910156 -0.484375 0.96875 -0.710938 0.96875 -1.046875 L 0.96875 -3.4375 C 0.96875 -3.613281 0.925781 -3.757812 0.84375 -3.875 C 0.769531 -3.988281 0.648438 -4.046875 0.484375 -4.046875 C 0.410156 -4.046875 0.34375 -4.03125 0.28125 -4 L 0.234375 -4.171875 L 1.609375 -4.703125 L 1.78125 -4.703125 Z M 1.78125 -1.03125 "/></g></g></g></g><g clip-path="url(#7cb44fb588)"><g fill="#8bc43f" fill-opacity="1"><g transform="translate(136.150155, 7.779347)"><g><path d="M 2.796875 -7.09375 C 3.015625 -7.09375 3.21875 -7.050781 3.40625 -6.96875 C 3.601562 -6.894531 3.757812 -6.796875 3.875 -6.671875 C 4 -6.546875 4.0625 -6.410156 4.0625 -6.265625 C 4.0625 -6.171875 4.019531 -6.082031 3.9375 -6 C 3.851562 -5.914062 3.757812 -5.875 3.65625 -5.875 C 3.539062 -5.875 3.445312 -5.90625 3.375 -5.96875 C 3.3125 -6.039062 3.234375 -6.140625 3.140625 -6.265625 C 3.035156 -6.429688 2.9375 -6.550781 2.84375 -6.625 C 2.75 -6.707031 2.617188 -6.75 2.453125 -6.75 C 2.265625 -6.75 2.109375 -6.675781 1.984375 -6.53125 C 1.859375 -6.382812 1.796875 -6.113281 1.796875 -5.71875 L 1.796875 -4.59375 L 2.734375 -4.59375 L 2.734375 -4.28125 L 1.796875 -4.28125 L 1.796875 -1.046875 C 1.796875 -0.785156 1.820312 -0.59375 1.875 -0.46875 C 1.925781 -0.351562 2.007812 -0.273438 2.125 -0.234375 C 2.238281 -0.191406 2.398438 -0.171875 2.609375 -0.171875 L 2.609375 0 L 0.234375 0 L 0.234375 -0.171875 C 0.429688 -0.171875 0.578125 -0.191406 0.671875 -0.234375 C 0.773438 -0.285156 0.851562 -0.367188 0.90625 -0.484375 C 0.957031 -0.609375 0.984375 -0.796875 0.984375 -1.046875 L 0.984375 -4.28125 L 0.34375 -4.28125 L 0.34375 -4.59375 L 0.984375 -4.59375 L 0.984375 -5.0625 C 0.984375 -5.46875 1.070312 -5.820312 1.25 -6.125 C 1.425781 -6.4375 1.648438 -6.675781 1.921875 -6.84375 C 2.203125 -7.007812 2.492188 -7.09375 2.796875 -7.09375 Z M 2.796875 -7.09375 "/></g></g></g></g><g fill="#8bc43f" fill-opacity="1"><g transform="translate(139.443254, 7.779347)"><g><path d="M 2.328125 -4.703125 C 2.835938 -4.703125 3.253906 -4.53125 3.578125 -4.1875 C 3.898438 -3.84375 4.0625 -3.394531 4.0625 -2.84375 L 0.953125 -2.84375 L 0.953125 -2.71875 C 0.953125 -2.375 1.019531 -2.039062 1.15625 -1.71875 C 1.289062 -1.394531 1.484375 -1.132812 1.734375 -0.9375 C 1.984375 -0.738281 2.269531 -0.640625 2.59375 -0.640625 C 3.21875 -0.640625 3.65625 -0.988281 3.90625 -1.6875 L 4.0625 -1.609375 C 3.945312 -1.066406 3.722656 -0.640625 3.390625 -0.328125 C 3.066406 -0.015625 2.675781 0.140625 2.21875 0.140625 C 1.875 0.140625 1.554688 0.0507812 1.265625 -0.125 C 0.972656 -0.300781 0.734375 -0.566406 0.546875 -0.921875 C 0.367188 -1.285156 0.28125 -1.71875 0.28125 -2.21875 C 0.28125 -2.707031 0.363281 -3.140625 0.53125 -3.515625 C 0.707031 -3.890625 0.945312 -4.179688 1.25 -4.390625 C 1.5625 -4.597656 1.921875 -4.703125 2.328125 -4.703125 Z M 2.046875 -4.359375 C 1.765625 -4.359375 1.523438 -4.25 1.328125 -4.03125 C 1.128906 -3.8125 1.007812 -3.519531 0.96875 -3.15625 L 3.03125 -3.15625 C 3.019531 -3.507812 2.929688 -3.796875 2.765625 -4.015625 C 2.597656 -4.242188 2.359375 -4.359375 2.046875 -4.359375 Z M 2.046875 -4.359375 "/></g></g></g></g></g><g transform="matrix(1, 0, 0, 1, 175, 179)"><g clip-path="url(#b3d5e95ef6)"><g fill="#297903" fill-opacity="1"><g transform="translate(1.003449, 31.275739)"><g><path d="M 22.328125 -0.328125 C 22.460938 -0.273438 22.519531 -0.195312 22.5 -0.09375 C 22.488281 0 22.429688 0.046875 22.328125 0.046875 C 22.296875 0.046875 21.984375 0.0351562 21.390625 0.015625 C 20.804688 0.00390625 20.078125 0 19.203125 0 C 18.335938 0 17.472656 -0.00390625 16.609375 -0.015625 C 15.742188 -0.0351562 15.015625 -0.046875 14.421875 -0.046875 C 13.828125 -0.046875 13.519531 -0.046875 13.5 -0.046875 C 13.382812 -0.046875 13.3125 -0.0976562 13.28125 -0.203125 C 13.257812 -0.316406 13.332031 -0.398438 13.5 -0.453125 C 13.96875 -0.535156 14.148438 -1.003906 14.046875 -1.859375 C 13.953125 -2.710938 13.648438 -3.789062 13.140625 -5.09375 C 12.628906 -6.40625 11.976562 -7.773438 11.1875 -9.203125 C 11.070312 -9.367188 10.90625 -9.472656 10.6875 -9.515625 C 10.46875 -9.554688 10.332031 -9.492188 10.28125 -9.328125 C 10.03125 -8.742188 9.773438 -8.125 9.515625 -7.46875 C 9.253906 -6.8125 9.09375 -6.410156 9.03125 -6.265625 C 8.539062 -4.867188 8.171875 -3.75 7.921875 -2.90625 C 7.671875 -2.070312 7.703125 -1.453125 8.015625 -1.046875 C 8.335938 -0.648438 9.0625 -0.410156 10.1875 -0.328125 C 10.351562 -0.273438 10.429688 -0.195312 10.421875 -0.09375 C 10.410156 0 10.332031 0.046875 10.1875 0.046875 C 10.101562 0.015625 9.757812 0 9.15625 0 C 8.550781 0 7.84375 0 7.03125 0 C 6.21875 0 5.457031 0 4.75 0 C 3.5625 -0.03125 2.632812 -0.046875 1.96875 -0.046875 C 1.3125 -0.046875 0.957031 -0.046875 0.90625 -0.046875 C 0.800781 -0.046875 0.738281 -0.09375 0.71875 -0.1875 C 0.707031 -0.28125 0.769531 -0.367188 0.90625 -0.453125 C 1.894531 -0.648438 2.820312 -0.921875 3.6875 -1.265625 C 4.5625 -1.609375 5.398438 -2.179688 6.203125 -2.984375 C 7.015625 -3.796875 7.78125 -5.003906 8.5 -6.609375 C 8.695312 -7.015625 8.925781 -7.5625 9.1875 -8.25 C 9.445312 -8.9375 9.609375 -9.65625 9.671875 -10.40625 C 9.742188 -11.164062 9.570312 -11.851562 9.15625 -12.46875 C 8.164062 -13.894531 7.117188 -15.148438 6.015625 -16.234375 C 4.921875 -17.328125 3.851562 -17.992188 2.8125 -18.234375 C 2.8125 -18.234375 2.671875 -18.296875 2.390625 -18.421875 C 2.117188 -18.546875 1.832031 -18.675781 1.53125 -18.8125 C 1.226562 -18.957031 1.019531 -19.054688 0.90625 -19.109375 C 0.769531 -19.160156 0.707031 -19.234375 0.71875 -19.328125 C 0.738281 -19.429688 0.800781 -19.484375 0.90625 -19.484375 C 0.9375 -19.484375 1.242188 -19.484375 1.828125 -19.484375 C 2.421875 -19.484375 3.148438 -19.484375 4.015625 -19.484375 C 4.890625 -19.484375 5.757812 -19.484375 6.625 -19.484375 C 7.488281 -19.484375 8.21875 -19.484375 8.8125 -19.484375 C 9.40625 -19.484375 9.710938 -19.484375 9.734375 -19.484375 C 9.867188 -19.484375 9.941406 -19.425781 9.953125 -19.3125 C 9.972656 -19.195312 9.898438 -19.113281 9.734375 -19.0625 C 9.566406 -19.007812 9.328125 -18.90625 9.015625 -18.75 C 8.703125 -18.601562 8.503906 -18.421875 8.421875 -18.203125 C 8.085938 -17.296875 8.222656 -16.179688 8.828125 -14.859375 C 9.429688 -13.535156 10.285156 -12.160156 11.390625 -10.734375 C 11.804688 -10.203125 12.125 -9.894531 12.34375 -9.8125 C 12.5625 -9.738281 12.722656 -9.78125 12.828125 -9.9375 C 12.941406 -10.101562 13.039062 -10.285156 13.125 -10.484375 C 13.425781 -11.222656 13.71875 -11.957031 14 -12.6875 C 14.289062 -13.414062 14.644531 -14.414062 15.0625 -15.6875 C 15.445312 -16.863281 15.535156 -17.695312 15.328125 -18.1875 C 15.117188 -18.6875 14.359375 -18.992188 13.046875 -19.109375 C 12.878906 -19.160156 12.804688 -19.234375 12.828125 -19.328125 C 12.859375 -19.429688 12.929688 -19.484375 13.046875 -19.484375 C 13.097656 -19.484375 13.4375 -19.484375 14.0625 -19.484375 C 14.695312 -19.484375 15.46875 -19.484375 16.375 -19.484375 C 17.289062 -19.484375 18.203125 -19.484375 19.109375 -19.484375 C 20.015625 -19.484375 20.769531 -19.484375 21.375 -19.484375 C 21.976562 -19.484375 22.296875 -19.484375 22.328125 -19.484375 C 22.429688 -19.484375 22.488281 -19.429688 22.5 -19.328125 C 22.519531 -19.234375 22.460938 -19.144531 22.328125 -19.0625 C 21.335938 -18.875 20.394531 -18.59375 19.5 -18.21875 C 18.601562 -17.84375 17.75 -17.226562 16.9375 -16.375 C 16.125 -15.53125 15.332031 -14.253906 14.5625 -12.546875 C 14.539062 -12.429688 14.429688 -12.144531 14.234375 -11.6875 C 14.046875 -11.238281 13.84375 -10.769531 13.625 -10.28125 C 13.394531 -9.75 13.253906 -9.328125 13.203125 -9.015625 C 13.148438 -8.703125 13.300781 -8.351562 13.65625 -7.96875 C 14.894531 -6.613281 16.132812 -5.359375 17.375 -4.203125 C 18.613281 -3.046875 19.6875 -2.117188 20.59375 -1.421875 C 21.5 -0.722656 22.078125 -0.359375 22.328125 -0.328125 Z M 22.328125 -0.328125 "/></g></g></g></g></g><g transform="matrix(1, 0, 0, 1, 88, 182)"><g clip-path="url(#e0b98f4a97)"><g fill="#297903" fill-opacity="1"><g transform="translate(0.998719, 28.640899)"><g><path d="M 24.59375 -20.796875 C 24.59375 -19.191406 24.03125 -17.84375 22.90625 -16.75 C 21.789062 -15.65625 20.191406 -14.90625 18.109375 -14.5 L 18.109375 -14.421875 C 20.460938 -14.078125 22.328125 -13.273438 23.703125 -12.015625 C 25.078125 -10.765625 25.765625 -9.226562 25.765625 -7.40625 C 25.765625 -5.863281 25.300781 -4.53125 24.375 -3.40625 C 23.457031 -2.28125 22.226562 -1.429688 20.6875 -0.859375 C 19.15625 -0.285156 17.492188 0 15.703125 0 L 0.59375 0 L 0.59375 -0.71875 C 1.582031 -0.71875 2.332031 -0.789062 2.84375 -0.9375 C 3.351562 -1.082031 3.734375 -1.394531 3.984375 -1.875 C 4.234375 -2.363281 4.359375 -3.128906 4.359375 -4.171875 L 4.359375 -23.3125 C 4.359375 -24.28125 4.242188 -25.007812 4.015625 -25.5 C 3.796875 -25.988281 3.4375 -26.320312 2.9375 -26.5 C 2.445312 -26.675781 1.75 -26.773438 0.84375 -26.796875 L 0.84375 -27.515625 L 15.140625 -27.515625 C 16.585938 -27.515625 18.03125 -27.300781 19.46875 -26.875 C 20.914062 -26.445312 22.128906 -25.734375 23.109375 -24.734375 C 24.097656 -23.734375 24.59375 -22.421875 24.59375 -20.796875 Z M 11.859375 -15.015625 C 14.046875 -15.015625 15.59375 -15.566406 16.5 -16.671875 C 17.414062 -17.785156 17.875 -19.078125 17.875 -20.546875 C 17.875 -21.910156 17.472656 -23.164062 16.671875 -24.3125 C 15.867188 -25.46875 14.53125 -26.046875 12.65625 -26.046875 L 10.78125 -26.046875 L 10.78125 -15.015625 Z M 13.09375 -1.40625 C 14.75 -1.40625 16.082031 -1.925781 17.09375 -2.96875 C 18.113281 -4.007812 18.625 -5.394531 18.625 -7.125 C 18.625 -8.945312 18.0625 -10.472656 16.9375 -11.703125 C 15.820312 -12.929688 14.0625 -13.546875 11.65625 -13.546875 L 10.78125 -13.546875 L 10.78125 -4.09375 C 10.78125 -3.019531 10.96875 -2.300781 11.34375 -1.9375 C 11.71875 -1.582031 12.300781 -1.40625 13.09375 -1.40625 Z M 13.09375 -1.40625 "/></g></g></g><g fill="#297903" fill-opacity="1"><g transform="translate(27.714421, 28.640899)"><g><path d="M 7.609375 -5.484375 C 7.609375 -4.304688 7.75 -3.457031 8.03125 -2.9375 C 8.3125 -2.414062 8.757812 -2.15625 9.375 -2.15625 C 9.9375 -2.15625 10.5 -2.367188 11.0625 -2.796875 C 11.625 -3.234375 12.117188 -3.820312 12.546875 -4.5625 L 12.546875 -15.625 C 12.546875 -16.394531 12.359375 -16.941406 11.984375 -17.265625 C 11.609375 -17.585938 11.019531 -17.789062 10.21875 -17.875 L 10.21875 -18.59375 L 18.03125 -18.59375 L 18.03125 -2.203125 C 18.03125 -1.316406 18.484375 -0.820312 19.390625 -0.71875 L 19.390625 0 L 12.546875 0 L 12.546875 -2.40625 C 11.796875 -1.519531 10.960938 -0.800781 10.046875 -0.25 C 9.140625 0.289062 8.207031 0.5625 7.25 0.5625 C 5.675781 0.5625 4.425781 0.046875 3.5 -0.984375 C 2.582031 -2.015625 2.125 -3.382812 2.125 -5.09375 L 2.125 -15.34375 C 2.125 -16.164062 2.015625 -16.765625 1.796875 -17.140625 C 1.585938 -17.515625 1.1875 -17.757812 0.59375 -17.875 L 0.59375 -18.59375 L 7.609375 -18.59375 Z M 7.609375 -5.484375 "/></g></g></g><g clip-path="url(#3f670d7708)"><g fill="#297903" fill-opacity="1"><g transform="translate(47.741189, 28.640899)"><g><path d="M 5.65625 -28.125 C 6.507812 -28.125 7.234375 -27.820312 7.828125 -27.21875 C 8.429688 -26.625 8.734375 -25.894531 8.734375 -25.03125 C 8.734375 -24.175781 8.429688 -23.441406 7.828125 -22.828125 C 7.234375 -22.222656 6.507812 -21.921875 5.65625 -21.921875 C 4.789062 -21.921875 4.050781 -22.222656 3.4375 -22.828125 C 2.832031 -23.441406 2.53125 -24.175781 2.53125 -25.03125 C 2.53125 -25.894531 2.832031 -26.625 3.4375 -27.21875 C 4.050781 -27.820312 4.789062 -28.125 5.65625 -28.125 Z M 8.296875 -3.046875 C 8.296875 -1.523438 8.960938 -0.75 10.296875 -0.71875 L 10.296875 0 L 0.484375 0 L 0.484375 -0.71875 C 1.304688 -0.71875 1.894531 -0.90625 2.25 -1.28125 C 2.613281 -1.65625 2.796875 -2.3125 2.796875 -3.25 L 2.796875 -15.390625 C 2.796875 -16.265625 2.625 -16.894531 2.28125 -17.28125 C 1.9375 -17.675781 1.335938 -17.875 0.484375 -17.875 L 0.484375 -18.59375 L 8.296875 -18.59375 Z M 8.296875 -3.046875 "/></g></g></g></g><g fill="#297903" fill-opacity="1"><g transform="translate(58.595696, 28.640899)"><g><path d="M 8.40625 -2.6875 C 8.40625 -2.019531 8.566406 -1.523438 8.890625 -1.203125 C 9.210938 -0.878906 9.722656 -0.71875 10.421875 -0.71875 L 10.421875 0 L 0.484375 0 L 0.484375 -0.71875 C 1.304688 -0.71875 1.914062 -0.894531 2.3125 -1.25 C 2.71875 -1.613281 2.921875 -2.171875 2.921875 -2.921875 L 2.921875 -24.359375 C 2.921875 -25.265625 2.738281 -25.890625 2.375 -26.234375 C 2.019531 -26.585938 1.390625 -26.773438 0.484375 -26.796875 L 0.484375 -27.515625 L 8.40625 -27.515625 Z M 8.40625 -2.6875 "/></g></g></g><g fill="#297903" fill-opacity="1"><g transform="translate(69.450204, 28.640899)"><g><path d="M 17.234375 -4.125 C 17.234375 -3.269531 17.390625 -2.664062 17.703125 -2.3125 C 18.023438 -1.96875 18.628906 -1.796875 19.515625 -1.796875 L 19.515625 -1.078125 L 11.734375 0.515625 L 11.734375 -2.15625 L 11.65625 -2.15625 C 11.226562 -1.28125 10.644531 -0.609375 9.90625 -0.140625 C 9.175781 0.328125 8.382812 0.5625 7.53125 0.5625 C 6.25 0.5625 5.109375 0.132812 4.109375 -0.71875 C 3.109375 -1.570312 2.328125 -2.757812 1.765625 -4.28125 C 1.203125 -5.800781 0.921875 -7.523438 0.921875 -9.453125 C 0.921875 -11.453125 1.257812 -13.179688 1.9375 -14.640625 C 2.625 -16.097656 3.5 -17.191406 4.5625 -17.921875 C 5.632812 -18.660156 6.742188 -19.03125 7.890625 -19.03125 C 8.640625 -19.03125 9.3125 -18.875 9.90625 -18.5625 C 10.507812 -18.257812 11.117188 -17.757812 11.734375 -17.0625 L 11.734375 -24.390625 C 11.734375 -25.359375 11.523438 -25.992188 11.109375 -26.296875 C 10.703125 -26.609375 10.003906 -26.773438 9.015625 -26.796875 L 9.015625 -27.515625 L 17.234375 -27.515625 Z M 6.6875 -10.09375 C 6.6875 -7.394531 6.882812 -5.351562 7.28125 -3.96875 C 7.6875 -2.582031 8.359375 -1.890625 9.296875 -1.890625 C 10.171875 -1.890625 10.984375 -2.675781 11.734375 -4.25 L 11.734375 -14.75 C 11.285156 -15.65625 10.832031 -16.285156 10.375 -16.640625 C 9.914062 -17.003906 9.421875 -17.1875 8.890625 -17.1875 C 8.035156 -17.1875 7.453125 -16.578125 7.140625 -15.359375 C 6.835938 -14.148438 6.6875 -12.394531 6.6875 -10.09375 Z M 6.6875 -10.09375 "/></g></g></g><g fill="#297903" fill-opacity="1"><g transform="translate(89.483846, 28.640899)"><g/></g></g></g></g><g clip-path="url(#aaf51857ca)"><g clip-path="url(#74aa2cb363)"><g transform="matrix(1, 0, 0, 1, 180, 180)"><g clip-path="url(#3a02df37c1)"><g clip-path="url(#2a557fbb63)"><g clip-path="url(#ddb8f0ba6b)"><path fill="#ffffff" d="M 0.539062 11.78125 L 12.042969 0.277344 L 30.871094 19.105469 L 19.367188 30.609375 Z M 0.539062 11.78125 " fill-opacity="1" fill-rule="nonzero"/></g></g></g></g></g></g><g clip-path="url(#bddc4f7f99)"><g clip-path="url(#261f03a496)"><g clip-path="url(#850e8d46b7)"><path fill="#297903" d="M 186.113281 200.457031 C 188.445312 197.734375 190.882812 196.097656 195.785156 192.257812 C 191.210938 196.9375 189.601562 198.53125 187.628906 201.71875 C 190.5625 202.933594 193.203125 203.144531 195.828125 200.734375 C 198.824219 197.980469 199.777344 193.445312 199.519531 189.070312 C 195.039062 188.566406 190.582031 189.011719 187.585938 191.761719 C 184.785156 194.335938 184.957031 197.175781 186.113281 200.457031 Z M 186.113281 200.457031 " fill-opacity="1" fill-rule="nonzero"/></g></g></g></svg>